<?xml version="1.0" encoding="UTF-8"?>
<svg width="180px" height="81px" viewBox="0 0 180 81" version="1.1" xmlns="http://www.w3.org/2000/svg" xmlns:xlink="http://www.w3.org/1999/xlink">
    <!-- Generator: Sketch 59.1 (86144) - https://sketch.com -->
    <title>Atoms / Logo / Press / #3@2x</title>
    <desc>Created with Sketch.</desc>
    <g id="Atoms-/-Logo-/-Press-/-#3" stroke="none" stroke-width="1" fill="none" fill-rule="evenodd">
        <g id="Astra-Zeneca" transform="translate(23.000000, 16.000000)" fill="#838383">
            <path d="M4.35085945,26.71875 L6.57229525,20.4910714 L8.7148635,26.71875 L4.35085945,26.71875 Z M10.9231547,33 L13,33 L7.65015167,18 L5.61274014,18 L0,33 L2.08998989,33 L3.7330637,28.40625 L9.33265925,28.40625 L10.9362993,33 L10.9231547,33 Z" id="Shape"></path>
            <path d="M16.9929577,27.600461 C15.1422535,27.1861399 13.1901408,26.7183581 13.1901408,24.3794489 C13.1901408,22.3212087 14.8380282,21.0114196 17.3352113,21.0114196 C18.9347145,20.8902472 20.4598316,21.7409474 21.2647887,23.2033116 L19.5915493,23.9383974 C19.0903811,23.01071 18.1445389,22.450392 17.1323944,22.4815911 C15.7126761,22.4815911 15.0028169,23.363694 15.0028169,24.1388753 C15.0028169,25.208091 16.3464789,25.6625076 17.5380282,25.9030811 C19.9211268,26.4109586 22,27.052488 22,29.4314928 C22,31.2758898 20.4535211,33 17.4873239,33 C15.3070423,33 13.684507,32.2248187 13,30.6209952 L14.9267606,30.2735001 C15.511031,31.1898735 16.5381355,31.676939 17.5760563,31.5298285 C19.1859155,31.5298285 20.1112676,30.8882991 20.1112676,29.6720663 C20.1112676,28.4558335 18.5774648,27.9746865 16.9929577,27.600461 Z" id="Path"></path>
            <path d="M26.841629,21.5057984 L29,21.5057984 L29,23.0981267 L26.841629,23.0981267 L26.841629,29.587868 C26.841629,30.925959 26.841629,31.5013381 27.6696833,31.5013381 C28.1008197,31.4686878 28.5254892,31.3786645 28.9321267,31.2337199 L28.9321267,32.8126673 C28.3134514,32.9221033 27.6871902,32.9847302 27.0588235,33 C24.8054299,33 24.8054299,31.9295272 24.8325792,30.4442462 L24.8325792,23.0981267 L23,23.0981267 L23,21.5057984 L24.8325792,21.5057984 L24.8325792,18.8296164 L26.841629,18 L26.841629,21.5459411 L26.841629,21.5057984 Z" id="Path"></path>
            <path d="M31.9769585,21.187257 L31.9769585,23.2986468 C32.7429204,21.8050226 34.3221353,20.9057906 36,21.0078579 L36,23.0364481 C34.0645161,23.0364481 33.1105991,23.4504461 32.4746544,24.4164414 C32.0215968,25.4092472 31.8494769,26.5069174 31.9769585,27.5904261 L31.9769585,33 L30,33 L30,21.187257 L31.9769585,21.187257 Z" id="Path"></path>
            <polygon id="Path" points="57.7861482 18 57.7861482 19.875 49.3122722 31.1919643 58 31.1919643 58 33 47 33 47 31.0446429 55.5139733 19.8482143 47.0133657 19.8482143 47.0133657 18 57.7861482 18"></polygon>
            <path d="M70.8307323,21.3850548 L70.8307323,23.0774792 C71.5219223,21.777907 72.8221574,20.9828131 74.2233482,21.0028944 C75.8621908,20.9352925 77.3364651,22.0579546 77.8079989,23.7326113 C77.9685682,24.5118879 78.0288661,25.3108436 77.9872315,26.1074649 L77.9872315,33 L76.1693014,33 L76.1693014,26.366788 C76.2203343,25.7227593 76.181505,25.0742225 76.0540805,24.4423376 C75.6897542,23.4246588 74.7432014,22.7814822 73.7240576,22.8591019 C72.9445217,22.8265398 72.1877845,23.1433041 71.6372787,23.7326113 C71.0156027,24.4288237 70.7195888,25.3855851 70.8307323,26.3394909 L70.8307323,32.9317571 L69,32.9317571 L69,21.3850548 L70.8307323,21.3850548 Z" id="Path"></path>
            <path d="M100,30.7530844 C99.0614919,32.2304133 97.3820405,33.0883482 95.6156969,32.9927723 C91.556157,32.9927723 90,29.8998699 90,27.126923 C90,23.9140374 91.7726658,21.0077757 95.4127199,21.0077757 C97.2345633,20.9085024 98.9739742,21.7653328 99.9864682,23.2607951 L98.173207,24.0073577 C97.7127438,22.9574192 96.6238727,22.3137683 95.4668471,22.4075807 C92.2868742,22.4075807 92.097429,25.9804161 92.097429,26.9802768 C92.097429,30.7264214 94.2760487,31.52631 95.5751015,31.52631 C96.7027609,31.6401115 97.7829279,31.0494936 98.2814614,30.0465162 L99.9864682,30.7530844 L100,30.7530844 Z" id="Path"></path>
            <path d="M60.0834741,25.9889119 L65.9932024,25.9889119 C65.835959,23.0148194 64.1455933,22.5213601 63.0317864,22.5213601 C61.4331459,22.5213601 60.2931318,23.7083297 60.0834741,25.9889119 Z M67.5394284,30.6701069 C66.6500779,32.2053023 64.9890444,33.1021371 63.2414442,32.9906992 C59.952438,32.9906992 58,30.7101171 58,26.8958101 C58,22.628054 60.7648618,21.000972 63.1104081,21.000972 C65.434438,20.9533086 67.4342837,22.6637499 67.788397,25.0019933 C67.9425923,25.7607159 68.0129154,26.534613 67.9980547,27.3092489 L60.0310596,27.3092489 C60.0310596,29.2030657 60.7648618,31.6036785 63.3986875,31.5503315 C64.3526975,31.568659 65.2411065,31.0578032 65.7180265,30.2166578 L67.5394284,30.5767497 L67.5394284,30.6701069 Z" id="Shape"></path>
            <path d="M81.0310596,25.9901434 L86.9407879,25.9901434 C86.7835446,23.0153167 85.0931788,22.5217356 83.979372,22.5217356 C82.3807315,22.5217356 81.2407174,23.7089983 81.0310596,25.9901434 Z M88.4870139,30.6724939 C87.6064751,32.1903425 85.9706879,33.0846707 84.2414442,32.9936591 C80.952438,32.9936591 79,30.712514 79,26.8972655 C79,22.6284559 81.7648618,21.0009722 84.1104081,21.0009722 C86.434438,20.9532971 88.4342837,22.6641606 88.788397,25.0029812 C88.9425923,25.7618911 89.0129154,26.5359792 88.9980547,27.3108064 L80.9786452,27.3108064 C80.9786452,29.2050906 81.7124474,31.606296 84.3462731,31.5529359 C85.3002831,31.5712679 86.1886921,31.060286 86.6656121,30.2189329 L88.4870139,30.5791137 L88.4870139,30.6724939 Z" id="Shape"></path>
            <path d="M110.000001,32.8534406 L108.000001,32.8534406 C107.884988,32.303976 107.807718,31.7475793 107.768708,31.1879925 C106.825989,32.324776 105.413738,32.9893949 103.918368,33 C101.673471,33 100.000001,31.6676415 100.000001,29.7756925 C99.9995475,29.1701128 100.179198,28.5775113 100.517008,28.0702737 C101.183675,27.1109756 102.408165,26.3515312 105.850341,26.0850596 L107.687075,25.9385001 L107.687075,25.6720284 C107.687075,24.499553 107.687075,22.5276624 105.102042,22.5276624 C103.482994,22.5276624 102.925171,23.3004304 102.734695,23.9932568 L100.952383,23.2604596 C100.952383,23.2604596 100.952383,23.1405473 101.047621,23.0739294 C101.848726,21.7074253 103.373977,20.9063311 104.979593,21.0087738 C106.174431,20.9781976 107.349226,21.3135538 108.340136,21.9680719 C109.150965,22.7030728 109.609942,23.7373337 109.605442,24.819319 L109.687075,30.6284019 C109.702121,31.3619824 109.807184,32.0911302 110.000001,32.8001462 L110.000001,32.8534406 Z M107.278912,29.7223982 C107.602613,28.9140175 107.710319,28.0381182 107.591837,27.1775935 C106.829933,27.2975058 105.809525,27.4440652 104.557824,27.7105369 C102.408165,28.1635388 102.040818,28.9496303 102.040818,29.7490453 C102.040818,30.5484604 102.775511,31.427817 104.217688,31.427817 C105.496357,31.5177895 106.704499,30.8447295 107.278912,29.7223982 L107.278912,29.7223982 Z" id="Shape"></path>
            <path d="M46,32.8534948 L44.016428,32.8534948 C43.9015793,32.3042333 43.8244183,31.7480423 43.7854641,31.1886624 C42.8380623,32.3322212 41.4161995,32.9973674 39.9134228,33 C37.6581286,33 36.0006232,31.6681341 36.0006232,29.7768846 C35.9883132,29.1779095 36.1586123,28.5889586 36.4897232,28.0854149 C37.1418564,27.1264715 38.3781924,26.3673079 41.8154782,26.1009347 L43.649603,25.9544295 L43.649603,25.6747376 C43.649603,24.5026957 43.649603,22.5315342 41.0682422,22.5315342 C39.437909,22.5315342 38.8944646,23.3040164 38.7042591,23.9965866 L36.9108926,23.2640604 C36.9108926,23.2640604 36.9788231,23.1441925 37.0059953,23.0775992 C37.8238251,21.6891068 39.3835444,20.8857258 41.0138977,21.0132071 C42.2110586,20.9842803 43.3880165,21.3192512 44.3832529,21.9721505 C45.1921365,22.7063011 45.6462386,23.7417886 45.633175,24.8223435 L45.7146917,30.6292787 C45.7164387,31.3793455 45.8122605,32.1263558 46,32.8534948 Z M43.282778,29.7236099 C43.5816725,29.097633 43.5952586,28.8312598 43.5952586,27.1797461 C42.8480225,27.299614 41.8290643,27.4461193 40.5791422,27.7124924 C38.4325369,28.1653268 38.0657119,28.9511277 38.0657119,29.7502472 C38.0657119,30.5493668 38.7857757,31.4283983 40.2259034,31.4283983 C41.5036054,31.5220269 42.7119818,30.8481275 43.282778,29.7236099 Z" id="Shape"></path>
            <path d="M135,17.7543488 C135,17.6888346 135,17.6233204 135,17.5578062 C135,17.492292 134.920874,17.2826466 134.868124,17.1516181 C134.81284,17.015559 134.74669,16.8841115 134.670309,16.7585329 C134.590431,16.6110409 134.497767,16.4707465 134.393369,16.339242 C134.338984,16.2634437 134.277137,16.1932153 134.208743,16.1295966 L133.971365,15.9068483 C133.785627,15.7470322 133.587163,15.6024281 133.377922,15.4744546 C132.929959,15.1745533 132.458022,14.9116172 131.966846,14.6882841 C131.373403,14.4262273 130.806335,14.124862 130.186517,13.9021137 L126.032415,12.4870069 C126.032415,11.7008365 126.032415,10.9277689 126.032415,10.1415985 C126.032415,8.98854855 125.940102,7.83549859 125.860976,6.68244863 C125.860976,5.88317536 125.702724,5.08390209 125.570848,4.28462883 C125.438972,3.48535556 125.320283,3.05296182 125.188407,2.43712832 C125.15239,2.29931265 125.108357,2.16368883 125.056531,2.03094027 C125.020547,1.90596027 124.976497,1.78341332 124.924655,1.66406074 C124.924655,1.55923801 124.819154,1.44131245 124.766403,1.34959257 C124.726838,1.24691811 124.673615,1.1499693 124.608152,1.06133008 C124.560001,0.979760196 124.507163,0.901012813 124.4499,0.825478948 L124.278461,0.602730661 L124.107022,0.445496575 L123.935583,0.30136533 L123.777331,0.196542607 L123.605892,0.117925564 C123.510581,0.0652504138 123.408557,0.0255845455 123.302577,0 L123.038824,0 L122.498132,0 L122.142066,0 C121.882267,0.0585993502 121.630064,0.146522705 121.390371,0.262056809 C121.249906,0.328441744 121.113407,0.402814472 120.981555,0.484805097 C120.849679,0.57652498 120.704615,0.655142022 120.572738,0.759964746 C120.339667,0.927774016 120.115196,1.10707054 119.90017,1.2971812 C119.042974,2.09645447 118.198966,2.92193342 117.368146,3.76051521 C116.932954,4.20601178 116.497762,4.6646112 116.049383,5.1494163 C114.45368,7.062431 112.871166,8.97544571 111.341401,10.9408718 C110.668832,11.8056592 110.022639,12.7228581 109.429195,13.6269541 C109.271705,13.8550346 109.126439,14.0912141 108.994004,14.3345075 C108.756627,14.7537983 108.532437,15.1730892 108.321435,15.6447915 C108.265064,15.7548126 108.216589,15.8686541 108.176371,15.9854653 C108.176371,16.1033909 108.097245,16.2213165 108.07087,16.3261392 C108.042546,16.4383935 108.020532,16.5521274 108.004932,16.6668131 C107.998356,16.7671619 107.998356,16.8678295 108.004932,16.9681784 L108.004932,17.1254125 L108.004932,17.2826466 L108.110433,17.4267778 L108.242309,17.5840119 L108.558812,17.8591715 C108.671027,17.9548885 108.790022,18.0424665 108.914878,18.1212283 C109.12588,18.2653596 109.35007,18.396388 109.574259,18.5274164 L109.864387,18.6846505 C109.864387,18.6846505 109.864387,18.6846505 109.772074,18.6191363 L109.772074,18.6191363 L109.930325,18.6977533 C111.249088,19.4053067 112.660164,20.0997572 114.005301,20.8204135 C115.350439,21.5410697 116.721952,22.2617259 118.06709,23.0085878 L121.087056,24.6857514 C120.045233,25.4850247 118.977036,26.2449894 117.948401,27.0573655 C117.553117,27.3691525 117.178676,27.706171 116.827453,28.0662842 C116.537998,28.3521176 116.265019,28.6539635 116.00982,28.9703802 C115.812006,29.2193342 115.627379,29.481391 115.442752,29.7565507 C115.308452,29.970735 115.18947,30.1940335 115.086686,30.4247955 C114.997153,30.5958256 114.926412,30.7759355 114.875684,30.962012 C114.837239,31.0911434 114.806415,31.2223952 114.783371,31.3550972 C114.783371,31.4337142 114.783371,31.5123313 114.783371,31.5909483 C114.783371,31.6695654 114.783371,31.5909483 114.783371,31.6826682 L114.783371,31.8923137 C114.776138,31.9620107 114.776138,32.032262 114.783371,32.1019591 C114.769744,32.1623562 114.769744,32.2250018 114.783371,32.2853989 C114.783371,32.2853989 114.783371,32.4164273 114.783371,32.4688386 L114.862497,32.6391756 C114.885333,32.6918042 114.916498,32.7404631 114.95481,32.7833068 C115.018876,32.8831197 115.094083,32.9754245 115.179,33.0584665 L115.442752,33.2812147 L115.746068,33.4777573 L116.075758,33.6218886 C116.184391,33.6789757 116.2995,33.7229636 116.418637,33.752917 C116.840641,33.8446369 117.262645,33.9232539 117.737399,33.9756653 C117.947138,34.0081116 118.160667,34.0081116 118.370405,33.9756653 C119.108912,33.9756653 119.834231,33.8446369 120.559551,33.7398142 C121.28487,33.6349914 122.234379,33.425346 123.078387,33.2419062 C123.922395,33.0584665 125.043343,32.8095125 126.019227,32.5474557 C126.713451,32.3924322 127.396361,32.191065 128.063309,31.944725 C128.577627,31.7350796 129.105132,31.538537 129.619449,31.3157887 L129.962327,31.1323489 L130.239267,30.9489091 C130.326238,30.8985028 130.406065,30.836814 130.476645,30.7654694 C130.540684,30.7062194 130.598158,30.64033 130.648084,30.5689268 C130.690894,30.5124439 130.726342,30.4508083 130.753585,30.385487 C130.76104,30.3245647 130.76104,30.2629695 130.753585,30.2020472 C130.771096,30.0847634 130.771096,29.9655544 130.753585,29.8482705 C130.759253,29.7960105 130.759253,29.7432965 130.753585,29.6910365 C130.758786,29.6387525 130.758786,29.5860864 130.753585,29.5338024 L130.648084,29.3896711 L130.542583,29.2586427 C130.470188,29.1736107 130.390788,29.0947207 130.305206,29.0227916 L130.081016,28.8524547 L129.856826,28.7083234 L128.406188,27.7518161 L126.137916,26.441532 C127.456679,25.5112304 128.89413,24.5940315 130.265643,23.650627 C130.845898,23.244439 131.412966,22.8251481 131.966846,22.340343 C132.520727,21.8555379 132.88998,21.5541725 133.285609,21.1479845 C133.492694,20.9465652 133.686513,20.7321087 133.865864,20.5059453 C133.956438,20.4114899 134.040169,20.3107831 134.116429,20.20458 L134.314244,19.9032146 C134.485683,19.549438 134.657122,19.1956613 134.802186,18.8287817 C134.861666,18.6816983 134.901566,18.5275291 134.920874,18.3701823 C134.934502,18.2965501 134.934502,18.2210662 134.920874,18.147434 C134.927838,18.0777235 134.927838,18.0074991 134.920874,17.9377886 C134.927002,17.8680394 134.927002,17.7978923 134.920874,17.7281431 L135,17.7543488 Z M118.080277,8.58236049 C118.858347,7.79619007 119.623229,6.9969168 120.401299,6.22384921 C120.546363,6.07971797 120.704615,5.94868956 120.862866,5.81766116 L121.021118,5.68663276 L121.152994,5.59491287 L121.258495,5.59491287 L121.377184,5.59491287 L121.574998,5.59491287 L121.574998,5.59491287 L121.574998,5.59491287 L121.574998,5.59491287 L121.574998,5.67352991 L121.812375,5.84386684 C121.849201,5.94239182 121.880028,6.04302871 121.904689,6.14523217 C121.904689,6.28936342 121.904689,6.43349466 121.997002,6.57762591 C121.997002,6.9314026 122.102503,7.29828213 122.142066,7.65205882 C122.181629,8.00583551 122.234379,8.59546333 122.273942,9.05406275 L122.511319,11.5436024 L119.72873,10.9015633 L117.091205,10.4822724 L116.471387,10.4822724 L116.260385,10.4822724 L117.987964,8.66097754 L118.080277,8.58236049 Z M116.339511,12.0415104 L116.418637,12.0415104 L116.51095,12.0415104 L116.761515,12.1463331 L117.104393,12.2904643 L119.741918,13.4173086 L121.50906,14.1641705 L122.656383,14.6620785 L122.761884,14.6620785 C122.761884,15.5792773 122.906948,16.4833733 122.946511,17.4005721 C122.946511,18.1081255 122.946511,18.8287817 123.025637,19.5363351 C123.025637,19.628055 123.025637,19.7197749 123.025637,19.8114948 C123.025637,19.9032146 123.025637,19.9163175 123.025637,19.955626 L123.025637,20.1128601 C123.030888,20.1563804 123.030888,20.2003682 123.025637,20.2438885 L122.946511,20.3749169 L122.946511,20.3749169 L122.867385,20.3749169 L122.788259,20.3749169 L122.550882,20.3749169 L122.432194,20.3749169 L122.300317,20.3749169 L122.036565,20.2438885 C121.937474,20.1935016 121.844549,20.1319499 121.759625,20.0604487 C121.6574,19.9935755 121.560414,19.9191135 121.469497,19.8377004 C121.366598,19.7526475 121.269663,19.6607139 121.179369,19.5625408 C120.968367,19.3397925 120.770553,19.1301471 120.585926,18.8942959 C120.238956,18.4966061 119.913214,18.0811123 119.610042,17.6495261 C119.201225,17.0467954 118.779221,16.4440648 118.383593,15.8413341 C118.139142,15.4780279 117.914625,15.1018649 117.711024,14.7144898 L116.537325,13.0635319 L116.339511,12.5001098 L116.339511,12.3297729 L116.339511,12.1725388 L116.339511,12.0153047 L116.339511,12.0415104 Z M126.230229,27.6600962 L126.955549,28.1186956 C127.258864,28.3152382 127.56218,28.5117808 127.865495,28.7345291 C128.080878,28.8847353 128.287795,29.0465807 128.485313,29.2193342 C128.575315,29.2956204 128.659098,29.378865 128.735878,29.4682882 C128.801816,29.5338024 128.854567,29.6124194 128.920505,29.6910365 L128.920505,29.6910365 L128.920505,29.6910365 C128.920505,29.6910365 128.920505,29.6910365 128.920505,29.6910365 L128.775441,29.6910365 L125.254345,29.9530933 L120.651864,30.30687 L120.493613,30.30687 L120.559551,30.2282529 L120.849679,29.9792989 C121.443122,29.5338024 122.023377,29.075203 122.643196,28.6690149 L125.28072,26.9132343 L126.269792,27.5421706 L126.230229,27.6600962 Z M129.72495,18.645342 C129.729915,18.6844957 129.729915,18.7241138 129.72495,18.7632675 C129.711554,18.81349 129.684121,18.858918 129.645824,18.8942959 C129.569173,18.9878879 129.485405,19.0754974 129.395259,19.1563527 C129.206948,19.3372886 129.008839,19.5078791 128.801816,19.6673635 C128.076497,20.1783743 127.351178,20.7024879 126.612671,21.2003958 C126.098353,21.5541725 125.570848,21.8686407 125.056531,22.2093146 L122.01019,24.1878435 L120.691427,23.4540844 L115.218563,20.2569913 C113.978926,19.5232323 112.739289,18.802576 111.51284,18.0557141 C111.275463,17.9115829 111.064461,17.7543488 110.840271,17.5971147 L110.642457,17.4398806 L110.497393,17.3088522 L110.497393,17.2171324 C110.490288,17.182548 110.490288,17.146894 110.497393,17.1123096 L110.497393,16.9943841 L110.497393,16.8633557 L110.497393,16.7192244 C110.513876,16.668881 110.535994,16.6205347 110.563331,16.5750932 C110.6127,16.4829546 110.670064,16.3952701 110.73477,16.3130364 C110.811144,16.2110374 110.894887,16.1146955 110.985335,16.0247739 C111.684279,15.3041176 112.409599,14.5965643 113.12173,13.875908 L115.033936,11.9366876 L115.126249,12.2511558 L115.350439,12.8014751 L115.350439,12.8014751 C115.864756,13.6662626 116.339511,14.5572557 116.880203,15.4220432 C117.420896,16.2868307 118.198966,17.3612636 118.818784,18.3046681 C119.1221,18.7501647 119.45179,19.1825584 119.794669,19.6149522 C120.137547,20.0473459 120.401299,20.3356084 120.73099,20.6762822 C121.027601,20.9683197 121.340182,21.243897 121.667311,21.5017612 C121.825563,21.6327896 122.01019,21.7245095 122.181629,21.842435 L122.445381,21.9734634 L122.709134,22.0651833 L122.972886,22.0651833 C123.055927,22.0777688 123.14041,22.0777688 123.223451,22.0651833 L123.447641,22.0651833 L123.658643,22.0651833 L123.843269,22.0651833 L124.014709,22.0651833 L124.17296,21.9996691 L124.304836,21.9079492 L124.542213,21.7245095 L124.713653,21.5279669 C124.778359,21.4457332 124.835722,21.3580486 124.885092,21.26591 C124.95103,21.1479845 125.016968,21.0300589 125.069718,20.9121334 C125.134776,20.7801693 125.19202,20.6445423 125.241158,20.5059453 C125.333471,20.2176828 125.425784,19.9294203 125.491722,19.6411578 C125.608048,19.2423153 125.69184,18.8348087 125.742287,18.4225937 L125.992852,16.0640824 C126.55992,16.3261392 127.140176,16.5619903 127.694056,16.8502528 C128.247936,17.1385153 128.749066,17.4529835 129.276571,17.7543488 L129.44801,17.8853772 L129.6722,18.0819198 C129.710253,18.1200565 129.741473,18.1643695 129.764513,18.2129482 L129.843639,18.3439766 L129.843639,18.4881079 L129.843639,18.5667249 C129.849809,18.5925721 129.849809,18.6194948 129.843639,18.645342 L129.72495,18.645342 Z" id="Shape"></path>
        </g>
    </g>
</svg>