<?xml version="1.0" encoding="UTF-8"?>
<svg width="180px" height="81px" viewBox="0 0 180 81" version="1.1" xmlns="http://www.w3.org/2000/svg" xmlns:xlink="http://www.w3.org/1999/xlink">
    <!-- Generator: Sketch 59.1 (86144) - https://sketch.com -->
    <title>Atoms / Logo / Press / #1@2x</title>
    <desc>Created with Sketch.</desc>
    <g id="Atoms-/-Logo-/-Press-/-#1" stroke="none" stroke-width="1" fill="none" fill-rule="evenodd">
        <g id="Cambria" transform="translate(25.000000, 3.000000)" fill="#838383">
            <path d="M75.0580548,15.6349829 C72.1399587,14.0284761 68.9224235,13.1287651 65.6372234,13.0006603 C63.4447911,12.980361 61.2709139,13.4283004 59.2449596,14.3178216 C57.990643,14.8373789 56.8562061,15.63695 55.9185,16.6623688 C55.5228823,17.129403 55.2115414,17.6696362 55,18.256134 L55,18.256134 L55.0868851,18.256134 C56.1471338,17.9472912 57.2662109,17.9472912 58.3264596,18.256134 C59.8001269,18.8466215 61.0070598,20.009683 61.7025678,21.5095225 C62.3728246,22.8266838 63.2044395,24.9868284 63.2168516,25 L63.2168516,25 L63.2168516,25 C63.2168516,25 63.2168516,24.9077987 63.2168516,24.762911 C62.970696,23.3725343 63.3415323,21.9393211 64.2222368,20.877285 C65.5627504,19.4547508 68.3803113,20.2713908 68.4051356,20.2713908 L68.4051356,20.2713908 L68.2934262,20.1133315 C67.5908075,19.152152 67.2343179,17.9565317 67.288041,16.7413985 C67.4150938,15.8748294 67.968952,15.1464255 68.740264,14.8315145 C69.8078551,14.4830547 70.9494839,14.4830547 72.0170749,14.8315145 L72.178433,14.8315145 C73.3451763,15.12129 75.9641426,16.0828178 75.988967,16.1486759 C76.0137913,16.2145339 75.988967,16.1486759 75.988967,16.1486759 L75.988967,16.1486759 C75.988967,16.1486759 75.6166021,15.9379301 75.0580548,15.6349829 Z" id="Path"></path>
            <path d="M61,10.9475066 L61,10.9475066 C62.1987164,10.1150726 63.5038929,9.45277832 64.8793103,8.97900262 C67.1092612,8.22894205 69.4106844,7.71870533 71.7456897,7.45669291 C74.6292293,7.10543353 77.5398921,7.04389283 80.4353448,7.27296588 L80.4353448,7.27296588 L80.4353448,7.27296588 L80.3448276,7.27296588 C79.7166323,6.97383894 79.3248563,6.3232159 79.3491379,5.61942257 C79.1939655,3.76902887 81.9741379,1.14435696 82,1.14435696 L82,1.14435696 L82,1.14435696 L81.5474138,1.40682415 C79.7004787,2.50682324 77.7349678,3.38750503 75.6896552,4.03149606 C74.6681034,4.22834646 73.5431034,4.13648294 73.3362069,3.48031496 C73.2316271,2.63908524 73.3429844,1.78470314 73.6594828,1 L73.6594828,1 L72.7284483,1.5511811 C70.1422414,3.06036745 63.237069,7.27296588 62.137931,8.67716535 C61.6064808,9.3609673 61.2271114,10.1533753 61.0258621,11 L61,10.9475066 Z" id="Path"></path>
            <path d="M76.6042553,10.8559638 C77.5423008,9.7377836 78.6998317,8.83856151 80,8.21799644 L80,8.21799644 L79.3744681,8.21799644 C76.5132814,7.92733452 73.6313994,7.92733452 70.7702128,8.21799644 C68.0710644,8.4486067 65.4336955,9.17674633 62.9829787,10.3679398 C61.7437553,10.9271813 60.6209871,11.7289136 59.6765957,12.7289205 C59.3358891,13.0574558 59.0999208,13.4852617 59,13.9555753 L59,13.9555753 L59,13.9555753 C61.6265124,13.0399207 64.4151602,12.7292869 67.1702128,13.0454766 C70.2705114,13.5830678 73.2799775,14.5780732 76.106383,16 L76.106383,16 L76.0170213,15.8285321 C75.249651,14.195857 75.4794351,12.2500955 76.6042553,10.8559638 L76.6042553,10.8559638 Z" id="Path"></path>
            <path d="M86.2166948,9.34727503 C86.2166948,9.41064639 86.4064081,9.68948035 86.4064081,9.68948035 L86.4822934,9.79087452 C86.5452466,9.8942062 86.6171964,9.99175568 86.6973019,10.0823828 L86.7984823,10.234474 C87.1283263,10.5886304 87.5413846,10.8544175 88,11.0076046 L88,11.0076046 L88,11.0076046 L88,10.9188847 C87.7997726,9.9351538 87.6561964,8.9406923 87.5699831,7.94043093 C87.5068527,7.03743962 87.5068527,6.13112818 87.5699831,5.22813688 L87.5699831,5 L87.5699831,5 L87.4940978,5.0887199 C86.7947124,5.80625684 86.0512743,6.47930428 85.2681282,7.10392902 C84.593969,7.68267879 83.8605356,8.18824495 83.0801012,8.6121673 L83.0801012,8.6121673 L83.0801012,8.6121673 C83.5217058,8.87637706 84.0209603,9.02864505 84.53457,9.05576679 C84.7515571,9.10015266 84.9752558,9.10015266 85.1922428,9.05576679 L85.4451939,9.05576679 L85.4451939,9.16983523 C85.2301855,9.56273764 84.5472175,10.8808619 84.5472175,10.8808619 C82.4321449,9.86642096 79.9107374,10.2757518 78.2234401,11.9074778 C77.314785,12.7402774 76.9442224,14.0106695 77.262226,15.2027883 C77.8495581,16.4868907 79.2036137,17.2373062 80.6011804,17.0532319 C82.0657143,16.8998947 83.3355494,15.9709085 83.9274874,14.6197719 L83.9274874,14.6197719 C84.0899739,15.022242 84.1209693,15.4659688 84.0160202,15.887199 C83.7266235,16.8187623 83.0416155,17.5747904 82.1441821,17.9531052 C80.8794266,18.460076 79.2478921,18.7896071 76.1112985,17.52218 L75.4536256,17.243346 C74.67254,16.9067278 73.8746895,16.6106034 73.0632378,16.356147 L72.7470489,16.2674271 C71.7938847,15.9379187 70.7955403,15.7583502 69.7875211,15.7351077 C69.0194653,15.6271524 68.2631796,15.9985654 67.8777403,16.6730038 C67.7326619,16.9600607 67.6548036,17.2764865 67.6500843,17.5982256 C67.7077648,18.2475603 67.9203083,18.8734975 68.2698145,19.4233207 C68.7112912,20.23108 69.1968502,21.0138467 69.7242833,21.7680608 L69.5851602,21.7680608 C68.7312366,21.3781154 67.8227087,21.1216515 66.891231,21.0076046 C65.2596965,20.8555133 64.5261383,21.0836502 63.9064081,21.9835234 C63.4220819,22.9515495 63.2879781,24.058003 63.5269815,25.1140684 C63.7293773,26.3873743 64.4599164,27.5154256 65.5379427,28.2192649 L66.3853288,28.6501901 L66.3853288,28.7135615 C65.4873524,30.6907478 64.2605396,32.0215463 63.2613828,32.0975919 C62.5657673,32.0975919 61.693086,31.0836502 61.1112985,30.373891 C60.9501445,30.1616344 60.7725274,29.9624525 60.5801012,29.7782003 C60.0842204,29.5189525 59.4773022,29.616883 59.0876897,30.0190114 L59.0876897,30.0190114 C59.3434384,30.102066 59.5799724,30.2356668 59.7833052,30.4119138 C60.0914018,30.6328456 60.2361986,31.0181183 60.1500843,31.3878327 L60.1500843,31.3878327 C60.1500843,31.3117871 59.7959528,31.0329531 59.0118044,31.2230672 C58.0379427,31.4512041 58,33.1749049 58,33.1875792 L58,33.1875792 L58,33.1875792 C58.2053825,32.9540688 58.4295781,32.7378777 58.6703204,32.5411914 C59.5303541,31.9201521 60.7951096,33.2889734 60.8456998,33.3523447 C60.7237575,33.3769259 60.6049651,33.4151898 60.4915683,33.4664132 C59.8245239,33.7662747 59.3020467,34.3171728 59.0370995,35 L59.0370995,35 L59.1888702,35 C61.2748029,34.4388202 63.4291054,34.1742967 65.5885329,34.2141952 C66.8696733,34.2712123 68.1413481,34.4623665 69.3827993,34.7845374 L69.3827993,34.7845374 L69.3827993,34.6958175 C69.1067573,34.227286 68.7363213,33.8215355 68.2951096,33.504436 C67.4495186,33.2264391 66.5756705,33.0436486 65.6897133,32.9594423 L65.8794266,32.8707224 C66.4232715,32.6045627 67.8903879,31.8441065 68.4089376,31.5019011 C68.8977007,31.2144317 69.3270155,30.8358366 69.6736931,30.3865653 C69.9527117,30.0132892 70.139124,29.5788564 70.2175379,29.1191381 C70.4010795,29.1640458 70.5678923,29.2608257 70.698145,29.3979721 C70.9043884,29.6322982 71.0169907,29.9347097 71.0143339,30.2471483 L71.0143339,30.2471483 L71.0143339,30.2471483 C71.017546,30.1922736 71.017546,30.1372574 71.0143339,30.0823828 C71.290315,29.3373331 71.2630611,28.5134381 70.9384486,27.7883397 C70.6521998,27.2490901 70.211806,26.807766 69.6736931,26.5209125 C69.3680175,26.3599941 69.1038893,26.1300208 68.9021922,25.8491762 C68.535508,25.1019709 68.8195243,24.1978955 69.5472175,23.7959442 C69.9116525,23.5737417 70.2873705,23.3706793 70.6728499,23.1875792 C71.4660513,24.4294523 72.5352549,25.4705491 73.796796,26.2294043 C75.3011383,27.0063655 76.9739511,27.3982387 78.6661046,27.3700887 C79.1820121,27.8146879 79.5079662,28.440753 79.5767285,29.1191381 C79.6243687,29.9467349 79.3577881,30.7617496 78.8305228,31.400507 C78.5828888,31.7228025 78.2202038,31.9363301 77.8187184,31.9961977 C77.1104553,31.9961977 76.237774,30.982256 75.6559865,30.2724968 C75.5023771,30.054117 75.3241322,29.8542312 75.1247892,29.6768061 C74.6368191,29.3960429 74.0192618,29.4965418 73.6450253,29.9176172 L73.6450253,29.9176172 C73.9051114,29.9994417 74.1460189,30.1330829 74.3532884,30.3105196 C74.65955,30.5325143 74.7998514,30.9191583 74.7074199,31.2864385 L74.7074199,31.2864385 C74.7074199,31.2103929 74.3532884,30.9315589 73.56914,31.121673 C72.5952782,31.3498099 72.5573356,33.0735108 72.5573356,33.086185 L72.5573356,33.086185 L72.5573356,33.086185 C72.7627181,32.8526746 72.9869137,32.6364836 73.227656,32.4397972 C74.0750422,31.8187579 75.3397976,33.1875792 75.4030354,33.2509506 C75.2770105,33.2755352 75.1540276,33.313783 75.0362563,33.365019 C74.3761528,33.674618 73.8567919,34.2222303 73.5817875,34.8986058 L73.5817875,34.8986058 L73.7335582,34.8986058 C75.8238917,34.337894 77.9823017,34.0733889 80.1458685,34.112801 C81.4271531,34.1683231 82.6989836,34.3595006 83.9401349,34.6831432 L83.9401349,34.6831432 L83.9401349,34.5944233 C83.6600995,34.128868 83.2903445,33.7238635 82.8524452,33.4030418 C82.004161,33.1189341 81.1254183,32.9360078 80.2344013,32.8580482 C80.2880952,32.8246491 80.3352444,32.7816956 80.3735245,32.7313054 C81.3628423,31.9542524 82.0514675,30.8563981 82.3212479,29.626109 C82.327545,29.524813 82.327545,29.4232225 82.3212479,29.3219265 C82.2867673,28.6577701 82.0867455,28.0128623 81.7394604,27.4461343 L81.7394604,27.4461343 C82.2692194,27.5706657 82.7768,27.7758366 83.2445194,28.0544994 C83.5358493,28.2458351 83.8033411,28.4713432 84.0413153,28.7262357 L84.0413153,28.7262357 L84.0413153,28.7262357 C84.047664,28.6757383 84.047664,28.624642 84.0413153,28.5741445 C83.8315233,27.6781503 83.1845909,26.9488139 82.3212479,26.634981 C80.5452256,25.8120036 78.943648,24.6545386 77.6037099,23.225602 L77.7554806,23.225602 C78.8030497,23.4105629 79.8668306,23.4870112 80.9300169,23.4537389 C82.2674119,23.4359941 83.5763691,23.0643395 84.7242833,22.3764259 C85.8640671,21.6864928 86.7512091,20.6463441 87.2537943,19.4106464 C87.6340346,18.5153657 87.8442092,17.5568365 87.8735245,16.5842839 C87.8624086,15.8234418 87.7431664,15.0680682 87.5193929,14.3409379 C87.1014569,13.1502188 86.3875917,12.0858831 85.4451939,11.2484157 C85.4451939,11.2484157 86.1787521,9.34727503 86.2040472,9.29657795 L86.2166948,9.34727503 Z M81.6509275,14.9746515 C81.2074273,15.1466549 80.7158442,15.1466549 80.272344,14.9746515 C80.037651,14.8682558 79.8553925,14.6719141 79.7664418,14.4296578 C79.6692098,14.1375244 79.7062681,13.8172221 79.8676223,13.5551331 C80.0869205,13.1736518 80.4525731,12.8988331 80.8794266,12.7946768 C81.7087559,12.6481656 82.5548762,12.9403824 83.1180438,13.5678074 C83.1180438,13.5678074 82.4983137,14.7084918 81.663575,15 L81.6509275,14.9746515 Z M78.4510961,24.0747782 C78.1638429,23.8207135 77.9051418,23.5359661 77.6795953,23.225602 L77.6795953,23.225602 C77.8882173,23.5305731 78.1253779,23.8149182 78.3878583,24.0747782 L78.4510961,24.0747782 Z" id="Shape"></path>
            <path d="M57.3263598,28.9106383 C57.6169205,28.3027111 57.7915505,27.6442824 57.8410042,26.9702128 L57.8410042,26.9702128 C58.716918,27.1293282 59.6136259,27.1293282 60.4895397,26.9702128 C61.3471583,26.8274976 62.1882985,26.5965241 63,26.2808511 C63,26.2042553 61.5564854,21.0978723 58.9832636,19.5914894 C56.9246862,18.3914894 54.1380753,19.5148936 54.0376569,19.5914894 C54.0394892,19.5617313 54.0394892,19.5318857 54.0376569,19.5021277 C54.2828108,18.4596519 54.7403728,17.4811117 55.3807531,16.6297872 C56.2195845,15.7045694 57.2143156,14.9393373 58.3179916,14.3702128 L58.3179916,14.3702128 C58.2050209,14.2808511 57.8033473,13.9234043 58.1171548,12.9531915 C58.5427385,12.0439551 59.375799,11.4013852 60.3514644,11.2297872 L60.3514644,11.2297872 L60.3514644,11.2297872 C59.8576032,10.8562122 59.650969,10.2052555 59.8368201,9.60851064 C60.0659052,8.9213556 60.6247442,8.40116978 61.3179916,8.22978723 L61.3933054,8.22978723 C60.9916318,7.89787234 60.3891213,7.24680851 60.7782427,6.48085106 C61.167364,5.71489362 62.0334728,5.71489362 62.3723849,5.65106383 L62.5230126,5.65106383 C62.1121727,5.27422804 61.6617561,4.94457934 61.1799163,4.66808511 L60.9037657,4.4893617 C60.4913906,4.26606004 60.2350742,3.82831577 60.2384937,3.35319149 C60.2344509,3.1250653 60.3553687,2.91354649 60.5523013,2.80425532 C61.1591665,2.38423306 61.6549454,1.81863232 61.9958159,1.15744681 L61.9958159,1.15744681 L61.7824268,1.15744681 C61.3851296,1.17288039 60.987723,1.12988347 60.6025105,1.02978723 L60.6025105,1.02978723 C60.7154812,0.812765957 61.0543933,0.110638298 60.9665272,0.0340425532 C60.8786611,-0.0425531915 60.8912134,0.0340425532 60.8786611,0.0340425532 C60.3586685,0.259528315 59.808819,0.405782869 59.2468619,0.468085106 L58.3556485,0.646808511 C57.7445646,0.770399792 57.1819879,1.07199956 56.7364017,1.51489362 C55.628279,1.17639322 54.4880333,0.958155727 53.334728,0.863829787 C52.4937238,0.940425532 51.9288703,2.05106383 51.916318,2.06382979 C51.1172132,1.94508241 50.3053809,1.94508241 49.5062762,2.06382979 C48.8658175,2.17030949 48.2617141,2.43800628 47.748954,2.84255319 C47.748954,2.84255319 47.748954,2.84255319 47.8242678,2.84255319 C48.5084571,2.80034959 49.1948882,2.86929922 49.8577406,3.04680851 L49.8577406,3.04680851 C49.7918136,3.16280457 49.7612329,3.29609569 49.7698745,3.42978723 C49.771226,3.63691276 49.8276082,3.83981454 49.9330544,4.01702128 C50.1338912,4.38723404 50.7112971,4.4893617 51.3263598,4.25957447 C51.5358869,4.16940004 51.7210108,4.02928842 51.8661088,3.85106383 C52.0537473,3.58141011 52.372354,3.43903336 52.6945607,3.48085106 C53.1116869,3.51051534 53.4543403,3.82732066 53.5230126,4.24680851 C51.9903271,4.65420726 50.4126201,4.8601403 48.8284519,4.85957447 C48.2372212,4.78703149 47.6505069,4.68047775 47.0711297,4.54042553 L47.0711297,4.54042553 C47.1468163,4.36955844 47.2138497,4.19486159 47.2719665,4.01702128 L47.2719665,4.01702128 C46.8180361,4.08051414 46.3576961,4.08051414 45.9037657,4.01702128 C45.2528284,4.0117631 44.6185571,3.80712104 44.083682,3.42978723 L44.083682,3.42978723 L44.083682,3.42978723 L44.083682,3.53191489 C44.2631709,4.24007864 44.6428421,4.87919647 45.1757322,5.37021277 C45.8465854,5.95241749 46.628688,6.38707046 47.4728033,6.64680851 L47.4728033,6.64680851 L47.4728033,6.58297872 C47.3849372,6.36595745 47.083682,5.76595745 47.0585774,5.71489362 L47.0585774,5.71489362 C47.5328195,5.83120613 48.0155859,5.90805576 48.5020921,5.94468085 C49.2213651,6.03240983 49.9505692,5.97602966 50.6485356,5.7787234 L50.6485356,5.7787234 C50.4927827,6.00539448 50.3976226,6.26933962 50.3723849,6.54468085 L50.3723849,6.63404255 C50.3948474,6.87059874 50.4817921,7.09608154 50.623431,7.28510638 C50.7454538,7.4395052 50.8235913,7.62492924 50.8493724,7.8212766 C50.855464,7.85932392 50.855464,7.89812289 50.8493724,7.93617021 C50.8302646,8.04166573 50.8302646,8.14982363 50.8493724,8.25531915 C50.8864058,8.7390499 51.0008838,9.21338028 51.1882845,9.65957447 L51.1882845,9.65957447 L51.1882845,9.59574468 C51.2761506,9.39148936 51.4769874,8.80425532 51.4769874,8.80425532 C51.6470163,8.34785857 51.8794262,7.91810258 52.167364,7.52765957 L52.167364,7.52765957 C52.167364,7.66808511 52.4435146,8.25531915 52.4435146,8.25531915 L52.4435146,8.25531915 L52.4435146,8.25531915 C52.5081799,7.94641405 52.7065205,7.68371334 52.9832636,7.54042553 C53.5441451,7.22660962 54.1649258,7.03938253 54.8033473,6.99148936 L54.5523013,7.32340426 C52.9074638,9.43841495 51.4060859,11.6648372 50.0585774,13.987234 C49.6016418,14.9900678 49.3782799,16.0865698 49.4058577,17.1914894 C49.4099417,17.8609878 49.4814445,18.5283002 49.6192469,19.1829787 L49.6192469,19.1829787 C48.9895398,18.9898423 48.4133465,18.6487373 47.9372385,18.187234 C47.4925117,17.2089641 47.2858543,16.1361959 47.334728,15.0595745 L47.2468619,13.7829787 C47.1035094,12.9765922 46.6522528,12.2606495 45.9916318,11.7914894 C46.173117,11.3748916 46.3200714,10.9436052 46.4309623,10.5021277 C46.4500817,10.3367398 46.4500817,10.1696432 46.4309623,10.0042553 C46.4302699,9.64362199 46.37089,9.28559201 46.2552301,8.94468085 C46.2552301,8.94468085 46.2552301,8.94468085 46.2552301,9.04680851 C46.2532961,9.02131448 46.2532961,8.9957068 46.2552301,8.97021277 L46.2552301,8.97021277 L46.2552301,8.97021277 L46.2552301,8.97021277 L46.2552301,8.97021277 C46.2622046,9.0295761 46.2622046,9.08957284 46.2552301,9.14893617 C46.1714887,9.36620625 45.9887469,9.52823136 45.7656904,9.58297872 C45.6150628,9.58297872 45.5020921,9.58297872 45.4895397,9.58297872 C45.49082,8.76908563 44.947511,8.05865544 44.1715481,7.85957447 C43.7837228,7.89248622 43.411328,8.02900644 43.0920502,8.25531915 L43.0920502,8.25531915 C43.4951744,8.39073787 43.8579465,8.62791809 44.1464435,8.94468085 C44.4066709,9.67639445 44.5259959,10.4522064 44.4979079,11.2297872 L44.4979079,11.2297872 L44.4979079,11.2297872 C44.0850553,10.85015 43.7184246,10.4215624 43.4058577,9.95319149 C43.3157401,9.80389825 43.1692512,9.69883508 43.0007219,9.66262424 C42.8321925,9.62641341 42.6564368,9.66223794 42.5146444,9.76170213 C42.3107245,9.8613206 42.1339957,10.0103708 42,10.1957447 C42.2686114,10.1181393 42.5575009,10.1750052 42.7782427,10.3489362 C42.9853086,10.9393941 43.3248327,11.4726471 43.7698745,11.906383 C44.5323181,12.5462224 44.8098663,13.6085929 44.460251,14.5489362 C44.1589958,15.8255319 42.4895397,16.2468085 42.4769874,16.2468085 L42.4769874,16.2468085 L42.4769874,16.2468085 C42.8280557,16.6603652 43.3652573,16.8585967 43.8953975,16.7702128 C44.547181,16.4309824 45.1009039,15.9250292 45.5020921,15.3021277 C45.5020921,15.3021277 45.5020921,15.4042553 45.5020921,15.5191489 C45.5020921,16.387234 45.7029289,19.3489362 45.7029289,19.3489362 C45.8599502,20.5903671 46.3556534,21.762273 47.1338912,22.7319149 L47.8493724,23.8680851 C48.0991408,24.2693887 48.2338972,24.7335909 48.2384937,25.2085106 C48.214384,25.918907 47.943034,26.5975185 47.4728033,27.1234043 C47.4615921,27.1431533 47.4615921,27.167485 47.4728033,27.187234 C47.5732218,27.2765957 47.8870293,27.187234 48.376569,26.9702128 C48.7477965,26.7833565 49.0903001,26.5425334 49.3933054,26.2553191 C49.8461959,25.8294741 50.3863847,25.5111805 50.9748954,25.3234043 C51.7079169,25.0943507 52.5052596,25.3069685 53.0334728,25.8723404 C53.0334728,25.8723404 53.4728033,26.5106383 52.5690377,28.5787234 C51.665272,30.6468085 50.4476987,32 49.4435146,32.0765957 C48.7405858,32.0765957 47.874477,31.0553191 47.3096234,30.3404255 C47.1501718,30.1223339 46.969325,29.9212996 46.7698745,29.7404255 C46.2855795,29.4576313 45.6726732,29.5588572 45.3012552,29.9829787 L45.3012552,29.9829787 C45.5550778,30.0666342 45.7898304,30.2012014 45.9916318,30.3787234 C46.2955868,30.602324 46.4348316,30.991765 46.3430962,31.3617021 L46.3430962,31.3617021 C46.3430962,31.2851064 45.9916318,31.0042553 45.2133891,31.1957447 C44.2468619,31.4255319 44.209205,33.1617021 44.209205,33.1744681 L44.209205,33.1744681 L44.209205,33.1744681 C44.4130407,32.9392684 44.6355478,32.7215135 44.874477,32.5234043 C45.7154812,31.8978723 46.9832636,33.2765957 47.0334728,33.3404255 C46.9099234,33.3710635 46.788353,33.4094345 46.6694561,33.4553191 C46.0129715,33.7611776 45.499625,34.3153198 45.2384937,35 L45.2384937,35 L45.3891213,35 C47.4591205,34.4335917 49.5973614,34.1671342 51.7405858,34.2085106 C53.0120774,34.2659402 54.2741748,34.4584772 55.5062762,34.7829787 L55.5062762,34.7829787 L55.5062762,34.6808511 C55.2280942,34.2156972 54.8610263,33.8119951 54.4267782,33.493617 C53.5878835,33.2123646 52.720478,33.0282224 51.8410042,32.9446809 L52.0041841,32.8297872 C53.045233,32.1337193 53.9692074,31.2716077 54.7405858,30.2765957 C55.2388206,29.4625181 55.5160131,28.528689 55.5439331,27.5702128 L55.5439331,27.5702128 C55.5439331,27.5702128 55.8200837,27.6340426 56.209205,28.4 C56.4440861,28.814311 56.5855672,29.2765009 56.623431,29.7531915 L56.623431,29.7531915 C56.8852603,29.4973408 57.1207854,29.2150329 57.3263598,28.9106383 L57.3263598,28.9106383 Z M54.6150628,2.58723404 C54.4652039,2.86392523 54.1719385,3.02796666 53.8619247,3.00851064 C53.5837056,2.97551408 53.3765378,2.73155254 53.3849372,2.44680851 L53.3849372,2.44680851 L53.0209205,2.24255319 L53.0209205,2.24255319 C53.2468619,2.24255319 54.0376569,2.24255319 54.0376569,2.24255319 L54.539749,2.31914894 C54.8720648,2.40485034 55.2136532,2.44773956 55.5564854,2.44680851 L54.5648536,2.62553191 L54.6150628,2.58723404 Z M42.5271967,16.3106383 L42.665272,16.3106383 L42.5899582,16.3106383 L42.5271967,16.3106383 Z" id="Shape"></path>
            <path d="M2.32315904,57.9237184 C0.747191406,56.4601527 -0.0998952849,54.3747728 0.00941263388,52.2276778 C0.0399039644,50.29777 0.802139776,48.4513217 2.14219563,47.0612011 C3.71876835,45.60368 5.82963523,44.8647333 7.9718025,45.0204428 C8.89895477,45.0151742 9.82471267,45.0929829 10.7379574,45.2529342 C11.3784698,45.3835764 12.0257716,45.4784423 12.6768511,45.5370905 C12.8965923,45.5370905 12.9353702,45.6275038 12.9353702,45.7437495 C12.9353702,45.8599952 12.8707404,46.1312353 12.8319626,46.8157934 C12.7931847,47.5003516 12.8319626,48.4948984 12.8319626,48.7790546 C12.8319626,49.0632108 12.7673328,49.1794566 12.6639251,49.1794566 C12.5605174,49.1794566 12.5088136,49.0502946 12.5088136,48.7790546 C12.5203064,48.0466937 12.2306154,47.3416891 11.7074042,46.8287096 C10.5634244,46.0636282 9.20485935,45.6835173 7.82961697,45.7437495 C6.23906835,45.5859575 4.65380324,46.0906162 3.44771735,47.1386982 C2.18414227,48.4711779 1.55751482,50.283729 1.72856499,52.1114321 C1.70438723,53.9540733 2.41914454,55.7297576 3.71343642,57.0424835 C5.00772831,58.3552094 6.77391041,59.0957993 8.61810038,59.0990919 C9.81609643,59.2551205 11.0258029,58.9144184 11.9659234,58.1562099 C12.3267069,57.6862623 12.5703952,57.1372711 12.6768511,56.5546021 C12.6768511,56.347943 12.7414808,56.2704459 12.8578145,56.2704459 C12.9741481,56.2704459 13,56.3996078 13,56.5546021 C12.9096071,57.3765152 12.7671355,58.191872 12.5734434,58.9957624 C12.4571098,59.3574157 12.4183319,59.3961643 12.082257,59.5511586 C10.9564411,59.8708778 9.78790624,60.0146558 8.61810038,59.977393 C6.33175262,60.1418094 4.0719412,59.4045639 2.32315904,57.9237184 Z" id="Path"></path>
            <path d="M55.2165605,58.1580796 C55.2165605,58.6733021 55.3694268,59.4461358 55.9808917,59.6779859 C56.27989,59.7591286 56.588537,59.7981386 56.8980892,59.793911 C56.8980892,59.793911 57,59.793911 57,59.8711944 C57,59.9484778 56.8853503,60 56.7070064,60 C56.5286624,60 54.8726115,60 54.3503185,59.9098361 C54.0318471,59.9098361 53.955414,59.9098361 53.955414,59.7681499 C53.955414,59.6264637 53.955414,59.6908665 54.0573248,59.6779859 C54.1592357,59.6651054 54.1464968,59.4203747 54.0573248,59.1627635 L53.3821656,51.795082 L53.3821656,51.795082 L49.9299363,59.2142857 C49.6242038,59.8454333 49.5859873,59.9742389 49.4585987,59.9742389 C49.3312102,59.9742389 49.2929936,59.8325527 49.0254777,59.3173302 C48.7579618,58.8021077 47.4458599,56.1487119 47.3694268,56.0070258 C47.2929936,55.8653396 45.6624204,52.323185 45.5095541,51.9367681 L45.5095541,51.9367681 L44.9363057,58.557377 C44.9363057,58.7892272 44.9363057,59.0468384 44.9363057,59.2915691 C44.9392618,59.5083844 45.0944532,59.6923569 45.3057325,59.7295082 C45.4816556,59.7680674 45.6608052,59.789632 45.8407643,59.793911 C45.8407643,59.793911 45.955414,59.793911 45.955414,59.8711944 C45.955414,59.9484778 45.866242,60 45.7006369,60 C45.1783439,60 44.5031847,60 44.4267516,60 L43.2420382,60 C43.1019108,60 43,60 43,59.8711944 C43,59.7423888 43.0764331,59.793911 43.1401274,59.793911 C43.2798395,59.809337 43.4207974,59.809337 43.5605096,59.793911 C44.0318471,59.7166276 44.0700637,59.1498829 44.133758,58.6088993 L45.0254777,49.2704918 C45.0254777,49.1159251 45.1019108,49.0128806 45.1910828,49.0128806 C45.2802548,49.0128806 45.3312102,49.0772834 45.3949045,49.2318501 L49.7133758,58.2482436 L53.866242,49.2318501 C53.866242,49.1030445 53.9808917,49 54.0700637,49 C54.1592357,49 54.2101911,49.1159251 54.2484076,49.3864169 L55.2165605,58.1580796 Z" id="Path"></path>
            <path d="M68.2847222,49.6526695 C68.2847222,49.5743491 68.2847222,49.5221356 68.4427083,49.4960288 C68.6549371,49.4519507 68.8706466,49.4300927 69.0868056,49.4307469 C70.4114583,49.4307469 70.9097222,50.7361008 70.9097222,51.9109058 C70.9157593,52.445008 70.7432837,52.9637285 70.4236111,53.3728853 C70.1440972,53.7253269 69.9496528,53.7514336 69.2083333,53.7514336 C68.9480674,53.7661951 68.6870848,53.7486749 68.4305556,53.6992201 C68.3576389,53.6992201 68.3333333,53.6992201 68.3333333,53.5425794 L68.2847222,49.6526695 Z M67.2152778,55.7616556 C67.2152778,57.1453148 67.2152778,58.294013 67.1545139,58.8944689 C67.09375,59.4949248 67.0329861,59.6385121 66.765625,59.6907257 C66.6281432,59.7033232 66.4899124,59.7033232 66.3524306,59.6907257 C66.3266095,59.6870386 66.3004909,59.694635 66.2799296,59.7118123 C66.2593684,59.7289895 66.2460844,59.7543106 66.2430556,59.7820994 C66.2430556,59.8734731 66.3159722,59.8995799 66.4618056,59.8995799 L67.7864583,59.8995799 C67.8958333,59.8995799 69.2569444,59.9779002 69.5729167,59.9779002 C70.4226518,60.0839861 71.275119,59.8050277 71.9254427,59.2080676 C72.5757664,58.6111076 72.9651457,57.750122 73,56.8320335 C72.9200128,55.3829467 71.9845648,54.1519698 70.6788194,53.7775404 C71.4074519,53.1293996 71.8485385,52.1818507 71.8940972,51.1668626 C71.8940972,50.4358728 71.4079861,49 69.1961806,49 C68.5763889,49 68.0538194,49 67.7378472,49 C67.6649306,49 66.8142361,49 66.21875,49 C66.0607639,49 66,49 66,49.1174805 C66,49.234961 66,49.1958008 66.109375,49.1958008 C66.2586849,49.1758691 66.4097179,49.1758691 66.5590278,49.1958008 C67.0086806,49.2871746 67.1180556,49.5221356 67.1423611,50.0181643 C67.1666667,50.5141931 67.1423611,50.879688 67.1423611,53.1379243 L67.2152778,55.7616556 Z M68.296875,54.2474624 C68.296875,54.1691421 68.296875,54.1430353 68.3697917,54.1430353 C68.4427083,54.1430353 69.2447917,54.1430353 69.4270833,54.1430353 C69.8275789,54.173739 70.2133517,54.3178647 70.5451389,54.5607438 C71.3968125,55.2479047 71.8786615,56.3416112 71.8333333,57.4847029 C71.8694383,58.0369021 71.6817637,58.5789462 71.3185105,58.9716203 C70.9552573,59.3642944 70.4518207,59.5693365 69.9375,59.534085 C69.5224309,59.5519845 69.1084674,59.4763955 68.7222222,59.3121774 C68.296875,59.1033232 68.296875,58.8944689 68.2604167,58.1895859 C68.2604167,57.9676783 68.2604167,56.179364 68.2604167,55.0698259 L68.296875,54.2474624 Z" id="Shape"></path>
            <path d="M86.4517282,49.7723156 C86.4427812,49.6939418 86.4932331,49.6210526 86.5697259,49.6018411 C86.887874,49.5298877 87.2139341,49.4990381 87.5399285,49.5100472 C89.1001192,49.5100472 90.057211,50.5984612 90.057211,52.4212268 C90.137523,53.2647372 89.8054475,54.0950892 89.1656734,54.6505085 C88.8409428,54.8545317 88.4601401,54.9508983 88.0774732,54.9258904 C87.5607957,54.9523456 87.0439758,54.8765898 86.556615,54.7029622 C86.488944,54.6673629 86.4480363,54.5957604 86.4517282,54.5193743 L86.4517282,49.7723156 Z M85.2848629,55.817603 C85.2848629,57.2076257 85.2848629,58.3616069 85.2848629,58.9648243 C85.2848629,59.5680417 85.1537545,59.7122893 84.8653159,59.764743 C84.7213814,59.7775644 84.5765924,59.7775644 84.4326579,59.764743 C84.340882,59.764743 84.3146603,59.764743 84.3146603,59.856537 C84.3146603,59.9483309 84.3146603,59.9745577 84.5375447,59.9745577 L85.8486293,59.9745577 C85.8486293,59.9745577 86.8319428,59.9745577 87.6317044,59.9745577 C87.7890346,59.9745577 87.8676996,59.9352175 87.8676996,59.856537 C87.864432,59.8286203 87.8501008,59.8031828 87.8279186,59.7859266 C87.8057364,59.7686704 87.7775587,59.7610389 87.749702,59.764743 L87.0941597,59.764743 C86.6615018,59.764743 86.5697259,59.3844538 86.5303933,58.9648243 C86.4910608,58.5451948 86.4517282,57.2076257 86.4517282,55.817603 L86.4517282,55.4635406 C86.4517282,55.3979735 86.4517282,55.3455199 86.556615,55.3455199 L88.3396901,55.3455199 C88.4098553,55.3413308 88.477885,55.3704921 88.523242,55.4242004 C88.8247914,55.8044896 89.5065554,56.7355426 90.1096544,57.5748016 C90.6220751,58.406853 91.2897504,59.132536 92.0762813,59.7122893 C92.557996,59.9410522 93.0923145,60.0361614 93.6233611,59.9876712 L94.659118,59.9876712 C94.9213349,59.9876712 95,59.9876712 95,59.8696504 C95,59.7516296 95,59.7778564 94.8688915,59.7778564 C94.6812113,59.7913442 94.4928054,59.7913442 94.3051251,59.7778564 C93.608384,59.6519448 92.9801607,59.2795912 92.5351609,58.7287827 C91.6960667,57.83707 90.7127533,56.5388412 89.5196663,55.0176843 C90.5695496,54.2108414 91.2119439,52.9833395 91.2765197,51.6606483 C91.249184,50.8606732 90.8580962,50.1169774 90.2145411,49.6411814 C89.4267494,49.1648225 88.5105095,48.9448817 87.5923719,49.0117371 L85.874851,49.0117371 C85.7961859,49.0117371 84.8915375,49.0117371 84.2359952,49.0117371 C84.0786651,49.0117371 84,49.0117371 84,49.1297579 C84,49.2477787 84,49.2084385 84.1179976,49.2084385 C84.2834636,49.1883913 84.4507438,49.1883913 84.6162098,49.2084385 C85.0882002,49.3002324 85.2061979,49.536274 85.2324195,50.034584 C85.2586412,50.5328941 85.2324195,50.9000699 85.2324195,53.1686918 L85.2848629,55.817603 Z" id="Shape"></path>
            <path d="M105.476865,55.1714976 C105.476865,56.4516908 105.476865,57.5144928 105.562274,58.0700483 C105.647683,58.6256039 105.704623,58.7584541 106.174373,58.8067633 L106.886116,58.8067633 C106.914908,58.8032361 106.944079,58.8105601 106.965972,58.826813 C106.987865,58.8430658 107.000293,58.8666242 107,58.8913043 C107,58.9637681 107,59 106.758002,59 C105.889676,59 104.893236,59 104.822062,59 L103.270462,59 C103.099644,59 103.014235,59 103.014235,58.8913043 C103.017783,58.8655935 103.033342,58.8421658 103.057426,58.8262731 C103.08151,58.8103803 103.112104,58.8033519 103.142349,58.8067633 C103.298623,58.8185717 103.455825,58.8185717 103.612099,58.8067633 C103.925266,58.8067633 104.010675,58.4565217 104.067614,58.0700483 C104.124554,57.6835749 104.153023,56.4516908 104.153023,55.1714976 L104.153023,52.8164251 C104.153023,50.7270531 104.153023,50.4009662 104.153023,49.9299517 C104.153023,49.4589372 103.953735,49.2415459 103.612099,49.1811594 C103.451646,49.1609911 103.288566,49.1609911 103.128114,49.1811594 C103.128114,49.1811594 103,49.1811594 103,49.1086957 C103,49.0362319 103.085409,49 103.256227,49 L104.850531,49 L106.387896,49 C106.558714,49 106.644123,49 106.644123,49.1086957 C106.644123,49.2173913 106.644123,49.1811594 106.51601,49.1811594 C106.383584,49.1682875 106.249859,49.1682875 106.117434,49.1811594 C105.690388,49.1811594 105.562274,49.4710145 105.533804,49.942029 C105.505335,50.4130435 105.533804,50.7391304 105.533804,52.8285024 L105.476865,55.1714976 Z" id="Path"></path>
            <path d="M126.976543,59.8701322 C126.777318,59.8722457 126.578817,59.8460048 126.38711,59.7922115 C126.085845,59.701304 125.666693,59.467542 125.07726,58.1948374 C124.186562,56.0130582 121.920522,50.0651124 121.697847,49.5196676 C121.475173,48.9742228 121.462074,49.0001964 121.383483,49.0001964 C121.304892,49.0001964 121.2394,49.0911039 121.056021,49.558628 L117.768297,58.4935334 C117.506327,59.2207931 117.21816,59.7922115 116.550137,59.7922115 L116.130985,59.7922115 C116.052394,59.7922115 116,59.7922115 116,59.883119 C116,59.9740264 116.078591,60 116.275068,60 C116.95619,60 117.755199,60 117.912381,60 L119.038852,60 C119.169837,60 119.261526,60 119.261526,59.883119 C119.261526,59.7662379 119.261526,59.7922115 119.117443,59.7922115 L118.973359,59.7922115 C118.724488,59.7922115 118.423222,59.6753305 118.423222,59.3766345 C118.435111,59.047778 118.50149,58.7231012 118.6197,58.4156127 L119.156738,56.8312254 L119.156738,56.8312254 L119.156738,56.8312254 L123.086288,56.8312254 L123.151781,56.8312254 C123.151781,56.8312254 123.151781,56.9221329 123.151781,56.9221329 L123.151781,56.9221329 L124.094873,59.3896213 C124.173464,59.6233833 124.094873,59.7532512 124.003183,59.7792247 C123.911494,59.8051983 123.898395,59.7792247 123.898395,59.883119 C123.898395,59.9870132 124.068676,59.9740264 124.343744,59.9870132 C125.33923,59.9870132 126.400209,59.9870132 126.609785,59.9870132 C126.819361,59.9870132 126.91105,59.9870132 126.91105,59.8701322 C126.91105,59.7532512 127.055134,59.8701322 126.976543,59.8701322 Z M119.824762,55.2208646 L121.134612,51.3248302 C121.213203,51.1040549 121.278695,51.1040549 121.357286,51.3248302 L122.667136,55.2208646 C122.667136,55.2208646 122.667136,55.311772 122.667136,55.311772 L119.864057,55.311772 C119.864057,55.311772 119.785466,55.2857985 119.824762,55.2208646 L119.824762,55.2208646 Z M123.07319,56.3247409 L119.444905,56.3247409 L119.444905,56.3247409 L119.562792,55.9740979 C119.579881,55.9080956 119.63824,55.8607552 119.706875,55.8572168 L122.824318,55.8572168 C122.882488,55.8585177 122.93416,55.8943794 122.955303,55.9481243 L123.086288,56.3117542 C123.082318,56.316458 123.077934,56.3208039 123.07319,56.3247409 L123.07319,56.3247409 Z" id="Shape"></path>
            <path d="M33.9082241,59.8701322 C33.7131758,59.8713633 33.5189409,59.8451274 33.3313468,59.7922115 C33.0297974,59.701304 32.6102503,59.467542 32.0858164,58.1948374 C31.1942789,56.0130582 28.9129917,50.0651124 28.7032181,49.5196676 C28.4934446,48.9742228 28.4672229,49.0001964 28.375447,49.0001964 C28.283671,49.0001964 28.2312277,49.0911039 28.0607867,49.558628 L24.7699642,58.4935334 C24.5077473,59.2207931 24.2193087,59.7922115 23.5506555,59.7922115 L23.1311085,59.7922115 C23.0524434,59.7922115 23,59.7922115 23,59.883119 C23,59.9740264 23.0786651,60 23.2753278,60 C23.9570918,60 24.7568534,60 24.9141836,60 L26.0417163,60 C26.1728248,60 26.2646007,60 26.2646007,59.883119 C26.2646007,59.7662379 26.2646007,59.7922115 26.1203814,59.7922115 L25.9761621,59.7922115 C25.727056,59.7922115 25.4255066,59.6753305 25.4255066,59.3766345 C25.4374058,59.047778 25.5038474,58.7231012 25.6221692,58.4156127 L26.1597139,56.8442122 L26.1597139,56.8442122 L26.238379,56.8442122 L30.1716329,56.8442122 L30.2371871,56.8442122 C30.2371871,56.8442122 30.2371871,56.8442122 30.2371871,56.9221329 L31.1942789,59.4026081 C31.272944,59.6363701 31.1942789,59.7662379 31.102503,59.7922115 C31.0107271,59.8181851 30.9976162,59.7922115 30.9976162,59.8961058 C30.9976162,60 31.1549464,59.9870132 31.4302741,60 C32.4398093,60 33.5017878,60 33.7115614,60 C33.9213349,60 34,60 34,59.883119 C34,59.7662379 34,59.8701322 33.9082241,59.8701322 Z M26.749702,55.2208646 L28.0607867,51.3248302 C28.1263409,51.1040549 28.205006,51.1040549 28.2705602,51.3248302 L29.6603099,55.2208646 C29.6603099,55.2208646 29.6603099,55.311772 29.5947557,55.311772 L26.8021454,55.311772 C26.8021454,55.311772 26.7234803,55.2857985 26.749702,55.2208646 L26.749702,55.2208646 Z M30.0274136,56.3247409 C30.0274136,56.3247409 30.0274136,56.3247409 30.0274136,56.3247409 L26.3825983,56.3247409 L26.3825983,56.3247409 L26.4874851,55.9870846 C26.4874851,55.9870846 26.5661502,55.8702036 26.6448153,55.8702036 L29.7651967,55.8702036 C29.7651967,55.8702036 29.8569726,55.8702036 29.8963051,55.9611111 L30.0274136,56.3247409 Z" id="Shape"></path>
            <path d="M128.48628,49.8485631 C127.874055,49.6951253 127.444696,49.1448793 127.444696,48.5137204 C127.444696,47.8825616 127.874055,47.3323156 128.48628,47.1788777 C129.098504,47.3323156 129.527863,47.8825616 129.527863,48.5137204 C129.527863,49.1448793 129.098504,49.6951253 128.48628,49.8485631 Z M128.48628,49.999937 C129.095433,50.0055004 129.647451,49.6420976 129.883142,49.0803604 C130.118832,48.5186233 129.991377,47.8701315 129.560623,47.4393772 C129.129869,47.0086229 128.481377,46.8811684 127.91964,47.1168585 C127.357902,47.3525486 126.9945,47.9045673 127.000063,48.5137204 C127,49.329191 127.657083,49.9923864 128.472518,49.999937 L128.48628,49.999937 Z M128.045919,48.6238105 C128.056247,48.7796006 128.056247,48.9359035 128.045919,49.0916935 C128.045919,49.1880224 128.045919,49.2017837 127.880784,49.2017837 C127.715649,49.2017837 127.880784,49.2017837 127.880784,49.2017837 L127.880784,49.2017837 L128.431235,49.2017837 C128.431235,49.2017837 128.431235,49.2017837 128.431235,49.2017837 C128.431235,49.2017837 128.307391,49.2017837 128.279861,49.2017837 C128.252338,49.2017837 128.279861,49.2017837 128.279861,48.7751845 L128.279861,48.596288 L128.582608,48.596288 L128.81655,48.9265584 C128.887498,49.0527069 128.986345,49.1609675 129.105536,49.2430675 C129.196062,49.2641943 129.290236,49.2641943 129.380762,49.2430675 L129.477091,49.2430675 C129.383546,49.2311951 129.298975,49.1814475 129.243149,49.1054548 C129.119298,48.9678422 128.967924,48.7614232 128.789027,48.5412429 C128.951163,48.420237 129.051828,48.2340072 129.064253,48.0320762 C129.057702,47.9146038 129.002926,47.8050522 128.912879,47.7293283 C128.781543,47.6614564 128.633455,47.6327943 128.48628,47.6467607 L127.894545,47.6467607 C128.004635,47.6467607 128.05968,47.6467607 128.073442,47.7568509 L128.073442,48.6100493 L128.045919,48.6238105 Z M128.252338,47.7155671 C128.252338,47.7155671 128.362428,47.7155671 128.389951,47.7155671 C128.499715,47.714935 128.604538,47.7611468 128.678113,47.8426045 C128.751688,47.9240621 128.787029,48.0330324 128.775266,48.1421663 C128.779746,48.2630751 128.729132,48.3794879 128.637653,48.4586754 C128.589016,48.4778441 128.534917,48.4778441 128.48628,48.4586754 C128.4092,48.4754376 128.329418,48.4754376 128.252338,48.4586754 L128.252338,47.7155671 Z" id="Shape"></path>
        </g>
    </g>
</svg>