<?xml version="1.0" encoding="UTF-8"?>
<svg width="180px" height="81px" viewBox="0 0 180 81" version="1.1" xmlns="http://www.w3.org/2000/svg" xmlns:xlink="http://www.w3.org/1999/xlink">
    <title>Atoms / Logo / Press / FOSS / Gray@2x</title>
    <g id="Atoms-/-Logo-/-Press-/-FOSS-/-Gray" stroke="none" stroke-width="1" fill="none" fill-rule="evenodd">
        <g id="Group-49-Copy" transform="translate(15.000000, 14.000000)">
            <path d="M75.3252,4.6052 C99.4602,4.6052 119.0252,14.2312 119.0252,26.1052 C119.0252,37.9792 99.4602,47.6052 75.3252,47.6052 C51.1902,47.6052 31.6252,37.9792 31.6252,26.1052 C31.6252,14.2312 51.1902,4.6052 75.3252,4.6052" id="Fill-1" fill="#838383"></path>
            <path d="M119.9248,19.2053 L140.7258,19.2053 C141.2258,19.5053 141.3248,20.2053 140.8248,20.9053 L134.3248,30.4053 C134.2258,30.5053 134.1248,30.6053 133.9248,30.7053 L121.0258,30.7053 C121.6248,29.2053 121.9248,27.7053 121.9248,26.1053 C121.9248,23.7053 121.2258,21.3053 119.9248,19.2053" id="Fill-3" fill="#FFFFFF"></path>
            <path d="M140.5254,19.7053 C140.6254,19.7053 140.6254,19.8053 140.6254,19.9053 L140.6254,20.0053 C140.6254,20.2053 140.5254,20.4053 140.4244,20.6053 L133.9244,30.1053 L133.8254,30.2053 L121.8254,30.2053 C122.2254,28.9053 122.4244,27.6053 122.5254,26.2053 C122.5254,24.0053 121.9244,21.8053 120.8254,19.8053 L140.5254,19.7053 Z" id="Fill-7" fill="#838383"></path>
            <path d="M144.0254,16.8054 C143.8254,17.0054 143.5254,17.2054 143.1254,17.3054 L118.5254,17.3054 C111.6254,8.6054 94.8254,2.5054 75.2254,2.5054 C55.6254,2.5054 38.9254,8.6054 32.0254,17.3054 L7.1254,17.3054 C6.8254,17.2054 6.5254,17.0054 6.3254,16.8054 L0.5254,8.4054 C-0.1746,7.4054 0.3254,6.5054 1.5254,6.5054 L43.5254,6.5054 C52.1254,2.6054 63.2254,0.2054 75.4254,0.2054 C87.6254,0.2054 98.7254,2.6054 107.3254,6.5054 L148.9244,6.5054 C150.1254,6.5054 150.6254,7.4054 149.9244,8.4054 L144.0254,16.8054 Z" id="Fill-9" fill="#FFFFFF"></path>
            <path d="M0.8252,8.1052 C0.7252,7.9052 0.6252,7.7052 0.6252,7.5052 L0.6252,7.3052 C0.8252,7.1052 1.1252,7.0052 1.4252,7.0052 L43.6252,7.0052 L43.7252,7.0052 C52.5252,3.0052 63.7252,0.8052 75.3252,0.8052 C86.9252,0.8052 98.2252,3.0052 106.9252,7.0052 L107.0252,7.0052 L148.8252,7.0052 C149.1252,7.0052 149.4252,7.1052 149.6252,7.3052 L149.6252,7.5052 C149.6252,7.7052 149.5252,7.9052 149.4252,8.1052 L143.6252,16.5052 C143.4252,16.6052 143.3252,16.7052 143.1252,16.8052 L118.8252,16.8052 C111.5252,7.8052 94.4252,2.0052 75.3252,2.0052 C56.2252,2.0052 39.1252,7.8052 31.8252,16.8052 L7.2252,16.8052 C7.0252,16.7052 6.8252,16.6052 6.7252,16.5052 L0.8252,8.1052 Z" id="Fill-13" fill="#838383"></path>
            <path d="M131.4248,32.6052 C132.2258,32.8052 132.5258,33.6052 131.9248,34.5052 L125.5258,43.8052 C125.2258,44.1052 124.9248,44.2052 124.5258,44.3052 L110.8248,44.3052 C110.6248,44.3052 110.4248,44.3052 110.1248,44.2052 C101.2258,49.0052 88.8248,52.0052 75.2248,52.0052 C61.6248,52.0052 49.1248,49.0052 40.2248,44.2052 C40.0258,44.3052 39.7248,44.3052 39.5258,44.3052 L26.0258,44.3052 C25.6248,44.2052 25.3248,44.0052 25.0258,43.8052 L18.5258,34.5052 C17.9248,33.6052 18.2248,32.9052 19.0258,32.6052 L30.4248,32.6052 C36.0258,42.5052 54.0258,49.7052 75.3248,49.7052 C96.6248,49.7052 114.6248,42.5052 120.2258,32.6052 L131.4248,32.6052 Z" id="Fill-15" fill="#FFFFFF"></path>
            <path d="M131.3252,33.2049 C131.5252,33.2049 131.6252,33.3059 131.7252,33.5059 L131.7252,33.7049 C131.7252,33.9049 131.6252,34.1049 131.5252,34.3059 L125.1252,43.6049 C124.9252,43.7049 124.7252,43.9049 124.5252,43.9049 L110.9252,43.9049 L110.2252,43.8059 L110.0252,43.9049 C100.8252,48.9049 88.5252,51.6049 75.3252,51.6049 C62.1252,51.6049 49.8252,48.8059 40.6252,43.8059 L40.5252,43.7049 L40.3252,43.7049 L39.7252,43.8059 L26.0252,43.8059 C25.8252,43.7049 25.6252,43.6049 25.4252,43.5059 L18.9252,34.2049 C18.8252,34.0059 18.7252,33.8059 18.7252,33.6049 L18.7252,33.4049 C18.8252,33.3059 18.9252,33.1049 19.1252,33.1049 L30.2252,33.1049 C36.2252,43.2049 54.6252,50.2049 75.3252,50.2049 C96.0252,50.2049 114.5252,43.2049 120.4252,33.1049 L131.3252,33.2049 Z" id="Fill-19" fill="#838383"></path>
            <path d="M16.4253,30.7049 C16.3253,30.6049 16.2253,30.5059 16.0253,30.4049 L9.4253,20.9049 C8.9253,20.2049 9.0253,19.5049 9.5253,19.2049 L30.6253,19.2049 C29.3253,21.3059 28.6253,23.7049 28.6253,26.1049 C28.6253,27.7049 28.9253,29.2049 29.5253,30.7049 L16.4253,30.7049 Z" id="Fill-21" fill="#FFFFFF"></path>
            <path d="M29.8252,19.7053 C28.7252,21.6053 28.1252,23.8053 28.1252,26.1053 C28.1252,27.5053 28.3252,28.8053 28.8252,30.1053 L16.6252,30.1053 L16.5252,30.0053 L9.9252,20.6053 C9.8252,20.4053 9.7252,20.2053 9.7252,20.0053 L9.7252,19.9053 C9.7252,19.8053 9.8252,19.8053 9.8252,19.7053 L29.8252,19.7053 Z" id="Fill-25" fill="#838383"></path>
            <path d="M32.3252,26.1052 C32.3252,14.6052 51.6252,5.2052 75.3252,5.2052 C99.0252,5.2052 118.3252,14.6052 118.3252,26.1052 C118.3252,37.6052 99.0252,47.0052 75.3252,47.0052 C51.6252,47.0052 32.3252,37.6052 32.3252,26.1052 M30.9252,26.1052 C30.9252,38.4052 50.8252,48.3052 75.2252,48.3052 C99.6252,48.3052 119.5252,38.3052 119.5252,26.1052 C119.5252,13.9052 99.7252,3.9052 75.3252,3.9052 C50.9252,3.9052 30.9252,13.9052 30.9252,26.1052" id="Fill-27" fill="#FFFFFF"></path>
            <polygon id="Fill-29" fill="#838383" points="54.8252 22.405 54.8252 18.605 42.7252 18.605 42.7252 34.605 47.5252 34.605 47.5252 28.305 54.6252 28.305 54.6252 24.705 47.5252 24.705 47.5252 22.405"></polygon>
            <path d="M54.125,19.3054 L54.125,21.8054 L46.825,21.8054 L46.825,25.5054 L53.925,25.5054 L53.925,27.6054 L46.825,27.6054 L46.825,33.9054 L43.325,33.9054 L43.325,19.3054 L54.125,19.3054 Z M54.825,17.9054 L42.025,17.9054 L42.025,35.2044 L48.225,35.2044 L48.225,28.9054 L55.325,28.9054 L55.325,23.9054 L48.225,23.9054 L48.225,23.0054 L55.525,23.0054 L55.525,17.8054 L54.825,17.9054 Z" id="Fill-31" fill="#FFFFFF"></path>
            <path d="M75.2251,26.6052 C75.3251,22.0052 71.5251,18.2052 66.9251,18.1052 L66.5251,18.1052 C61.8251,17.9052 57.9251,21.6052 57.7251,26.3052 C57.5251,31.0052 61.2251,34.9052 65.9251,35.1052 L66.5251,35.1052 C71.1251,35.3052 75.0251,31.7052 75.2251,27.1052 L75.2251,26.6052 Z" id="Fill-33" fill="#838383"></path>
            <path d="M58.4253,26.6052 C58.3253,22.4052 61.7253,18.9052 65.9253,18.8052 L66.4253,18.8052 C70.7253,18.7052 74.3253,22.0052 74.4253,26.3052 L74.4253,26.6052 C74.5253,30.8052 71.1253,34.3052 66.9253,34.4052 L66.4253,34.4052 C61.8253,34.4052 58.4253,31.1052 58.4253,26.6052 L58.4253,26.6052 Z M57.1253,26.6052 C57.1253,31.6052 61.1253,35.7052 66.1253,35.7052 L66.5253,35.7052 C71.6253,35.7052 75.7253,31.6052 75.7253,26.5052 C75.7253,21.4052 71.6253,17.3052 66.5253,17.3052 C61.5253,17.1052 57.3253,21.0052 57.1253,26.1052 L57.1253,26.6052 Z" id="Fill-35" fill="#FFFFFF"></path>
            <path d="M70.3252,26.6052 C70.3252,29.0052 69.1252,31.2052 66.5252,31.2052 C63.9252,31.2052 62.7252,29.1052 62.7252,26.6052 C62.7252,24.2052 63.9252,22.0052 66.5252,22.0052 C69.1252,22.0052 70.3252,24.2052 70.3252,26.6052" id="Fill-37" fill="#838383"></path>
            <path d="M64.4253,29.7049 C63.7253,28.8059 63.3253,27.7049 63.3253,26.6049 C63.3253,24.7049 64.1253,22.7049 66.5253,22.7049 C68.8253,22.7049 69.6253,24.7049 69.6253,26.6049 C69.7253,27.7049 69.3253,28.8059 68.5253,29.7049 C68.0253,30.2049 67.2253,30.5059 66.5253,30.5059 C65.7253,30.5059 65.0253,30.2049 64.4253,29.7049 M62.0253,26.6049 C61.9253,28.1049 62.5253,29.6049 63.5253,30.7049 C64.3253,31.5059 65.4253,31.9049 66.5253,31.9049 C67.6253,31.9049 68.7253,31.5059 69.5253,30.7049 C70.5253,29.6049 71.1253,28.1049 71.0253,26.6049 C71.0253,23.4049 69.2253,21.3059 66.5253,21.3059 C63.8253,21.3059 62.0253,23.5049 62.0253,26.6049" id="Fill-39" fill="#FFFFFF"></path>
            <path d="M92.5254,29.6052 C92.5254,26.0052 89.8254,24.8052 85.8254,24.2052 C84.3254,23.9052 83.6254,23.6052 83.6254,22.9052 C83.6254,22.0052 84.4244,21.7052 85.7254,21.7052 C87.1254,21.7052 88.4244,22.3052 89.4244,23.3052 L91.9244,20.5052 C90.8254,19.3052 88.9244,18.1052 85.0254,18.1052 C80.6254,18.1052 78.2254,20.9052 78.2254,23.3052 C78.2254,25.7052 79.5254,28.0052 84.5254,28.8052 C86.5254,29.1052 87.1254,29.6052 87.1254,30.4052 C87.1254,31.2052 86.2254,31.6052 84.8254,31.6052 C83.1254,31.4052 81.6254,30.7052 80.5254,29.4052 L78.0254,32.5052 C79.0254,33.6052 81.0254,35.2052 85.1254,35.2052 C89.8254,35.1052 92.5254,32.9052 92.5254,29.6052" id="Fill-41" fill="#838383"></path>
            <path d="M84.8252,32.2049 C87.0252,32.2049 87.8252,31.2049 87.8252,30.3059 C87.8252,28.8059 86.2252,28.3059 84.6252,28.1049 C79.5252,27.3059 78.9252,25.0049 78.9252,23.3059 C78.9252,21.1049 81.3252,18.8059 85.0252,18.8059 C87.1252,18.7049 89.2252,19.3059 90.8252,20.6049 L89.2252,22.4049 C88.1252,21.6049 86.9252,21.1049 85.5252,21.1049 C84.7252,21.0049 83.9252,21.2049 83.2252,21.8059 C82.9252,22.1049 82.7252,22.6049 82.7252,23.0049 C82.7252,24.5049 84.4252,24.8059 85.5252,25.0049 C90.0252,25.8059 91.6252,27.1049 91.6252,29.8059 C91.6252,32.8059 89.1252,34.5059 84.9252,34.5059 C82.7252,34.6049 80.5252,33.9049 78.8252,32.4049 L80.4252,30.4049 C81.7252,31.4049 83.2252,32.1049 84.8252,32.2049 M77.6252,23.3059 C77.6252,26.7049 79.9252,28.7049 84.4252,29.5059 C86.5252,29.8059 86.5252,30.2049 86.5252,30.4049 C86.5252,30.6049 86.0252,30.9049 84.9252,30.9049 C83.4252,30.7049 82.1252,30.1049 81.1252,29.0059 L80.6252,28.3059 L77.1252,32.6049 L77.5252,33.0059 C79.5252,35.0059 82.3252,36.0059 85.1252,35.9049 C90.1252,35.9049 93.2252,33.6049 93.2252,29.8059 C93.2252,25.5049 89.5252,24.3059 86.0252,23.7049 C84.6252,23.4049 84.4252,23.2049 84.4252,23.1049 C84.4252,23.0049 84.4252,22.9049 84.5252,22.8059 C84.6252,22.7049 84.9252,22.5049 85.8252,22.5049 C87.0252,22.5049 88.2252,23.0049 89.1252,23.8059 L89.6252,24.4049 L93.0252,20.6049 L92.6252,20.1049 C91.0252,18.4049 88.5252,17.5049 85.2252,17.5049 C80.4252,17.4049 77.6252,20.4049 77.6252,23.3059" id="Fill-43" fill="#FFFFFF"></path>
            <path d="M109.7256,29.6052 C109.7256,26.0052 107.0256,24.8052 103.0256,24.2052 C101.5256,23.9052 100.8256,23.6052 100.8256,22.9052 C100.8256,22.0052 101.6246,21.7052 102.9246,21.7052 C104.3256,21.7052 105.6246,22.3052 106.6246,23.3052 L109.1246,20.5052 C108.0256,19.3052 106.1246,18.1052 102.2256,18.1052 C97.8256,18.1052 95.4246,20.9052 95.4246,23.3052 C95.4246,25.7052 96.6246,28.0052 101.7256,28.8052 C103.7256,29.1052 104.3256,29.6052 104.3256,30.4052 C104.3256,31.2052 103.4246,31.6052 102.0256,31.6052 C100.3256,31.5052 98.8256,30.7052 97.7256,29.4052 L95.2256,32.5052 C96.2256,33.6052 98.2256,35.2052 102.3256,35.2052 C107.1246,35.1052 109.7256,32.9052 109.7256,29.6052" id="Fill-45" fill="#838383"></path>
            <path d="M105.125,30.3054 C105.125,28.8054 103.625,28.3054 101.925,28.1054 C96.825,27.3054 96.226,25.0054 96.226,23.3054 C96.226,21.1054 98.625,18.8054 102.325,18.8054 C104.425,18.7054 106.525,19.3054 108.226,20.6054 L106.625,22.4054 C105.525,21.6054 104.325,21.1054 102.925,21.1054 C102.125,21.0054 101.325,21.2054 100.625,21.8054 C100.325,22.1054 100.125,22.6054 100.125,23.0054 C100.125,24.5054 101.825,24.8054 102.925,25.0054 C107.425,25.8054 109.025,27.1054 109.025,29.8054 C109.025,32.8054 106.525,34.5054 102.325,34.5054 C100.125,34.6054 97.925,33.9054 96.226,32.4054 L97.825,30.4054 C99.025,31.5054 100.525,32.1054 102.025,32.2044 C104.325,32.2044 105.125,31.2044 105.125,30.3054 M94.825,23.3054 C94.825,26.7044 97.125,28.7044 101.625,29.5054 C103.726,29.8054 103.726,30.2044 103.726,30.4054 C103.726,30.6054 103.226,30.9054 102.125,30.9054 C100.625,30.8054 99.325,30.1054 98.325,29.0054 L97.825,28.2044 L94.325,32.4054 L94.726,32.8054 C96.726,34.8054 99.525,35.8054 102.325,35.7044 C107.325,35.7044 110.425,33.4054 110.425,29.6054 C110.425,25.3054 106.726,24.1054 103.226,23.5054 C101.825,23.2054 101.625,23.0054 101.625,22.9054 C101.625,22.8054 101.625,22.7054 101.726,22.6054 C101.825,22.5054 102.125,22.3054 103.025,22.3054 C104.226,22.3054 105.425,22.8054 106.325,23.6054 L106.825,24.2054 L110.226,20.4054 L109.825,19.9054 C108.226,18.2054 105.726,17.3054 102.425,17.3054 C97.625,17.4054 94.825,20.4054 94.825,23.3054" id="Fill-47" fill="#FFFFFF"></path>
        </g>
    </g>
</svg>