<?xml version="1.0" encoding="UTF-8"?>
<svg width="180px" height="81px" viewBox="0 0 180 81" version="1.1" xmlns="http://www.w3.org/2000/svg" xmlns:xlink="http://www.w3.org/1999/xlink">
    <!-- Generator: Sketch 59.1 (86144) - https://sketch.com -->
    <title>Atoms / Logo / Press / #4@2x</title>
    <desc>Created with Sketch.</desc>
    <g id="Atoms-/-Logo-/-Press-/-#4" stroke="none" stroke-width="1" fill="none" fill-rule="evenodd">
        <g id="RBC" transform="translate(26.000000, 1.000000)">
            <path d="M57.8152153,28.0941375 C58.0153961,27.574281 58.0987561,27.0175241 58.0595008,26.4625691 C57.8708007,25.8425878 57.427621,25.3295262 56.8380733,25.0485431 C54.8926203,24.2084006 52.9927576,23.2684695 51.146221,22.2325769 L39.8113736,22.2325769 L35.7806627,24.5772011 L35.7806627,17.5433285 L34.5592352,17.5433285 C34.7336882,17.1915378 34.9740924,16.8757404 35.2676632,16.6127302 L35.0355919,16.3710163 C33.8141644,17.5795855 32.8980937,17.5795855 30.2842388,16.6127302 C28.9819304,16.2243477 27.5701216,16.4857118 26.4978135,17.3137003 L26.4978135,16.8786154 C26.4978135,16.1776453 26.9741702,15.2349613 29.0994541,15.4766751 L32.421737,15.4766751 C33.3063033,15.4030235 34.1816357,15.2451797 35.0355919,15.0053332 C35.7471365,14.5212928 36.196809,13.7426502 36.2570194,12.8903371 L36.2570194,6.00149271 L18.4730347,6.00149271 L18.4730347,3.00424113 L14.0392527,3.00424113 C12.6740041,2.94868368 11.3439095,3.44085971 10.3505167,4.36918726 C9.35712386,5.29751482 8.78457945,6.58335872 8.76268582,7.93520341 C8.76939848,10.5222476 10.8872561,12.6178099 13.5018246,12.6244519 L13.7338959,12.6244519 L13.7338959,10.7511696 L13.5018246,10.7511696 C11.8406832,10.7511696 11.3643264,9.33714367 11.3643264,7.93520341 C11.4685644,6.566555 12.653569,5.5278757 14.0392527,5.59057919 L16.1645366,5.59057919 L16.1645366,8.63617354 L22.5648169,8.63617354 L22.5648169,10.0381138 L20.8426041,10.0381138 L20.8426041,10.9807978 L24.1648869,12.6244519 L24.1648869,8.86580169 L33.6431645,8.86580169 L33.6431645,12.382738 C33.6749852,12.6425735 33.5901744,12.9031609 33.4110933,13.0957938 C33.1668078,13.325422 32.9347366,13.325422 32.4583798,13.325422 L28.9040257,13.325422 C26.7665276,13.325422 24.3969582,13.796764 24.3969582,16.6127302 C24.3969582,19.8879527 27.4871698,20.8306366 29.136097,20.8306366 C30.172518,20.89442 31.1932995,20.5562966 31.9820231,19.8879527 L33.4110933,19.8879527 L33.4110933,22.0029488 C31.5056664,21.3019786 29.3803825,21.7612349 27.2428843,22.2325769 C25.5996372,22.5093524 23.9381387,22.6668863 22.2716743,22.7039189 C19.0377072,22.754141 16.341274,20.2675212 16.1645366,17.0719865 L14.7476807,16.3710163 C14.5033952,20.1296665 15.9691082,22.7039189 20.1952475,23.876231 C24.9343863,26.2208552 28.2566691,28.5654794 29.6735251,32.7833859 L30.1498818,32.7833859 L30.1498818,29.7377916 C33.9485214,32.3241296 36.5501621,34.42704 37.478447,36.9892067 C38.0616699,38.3227256 38.3809391,39.7545694 38.4189462,41.2071131 L38.8953029,41.2071131 C39.1615246,39.1819344 38.9993064,37.1241077 38.4189462,35.1642672 C38.3615941,34.8126753 38.1951156,34.4874472 37.9425894,34.2336689 L41.741229,34.4632971 C41.7082244,36.0298188 41.7857699,37.5967095 41.9733003,39.1525455 L40.5198015,39.1525455 L40.5198015,39.6238875 L41.9366574,39.6238875 C41.9109279,40.2574697 41.9935176,40.8908019 42.180943,41.4971697 L42.6450854,41.4971697 L42.6450854,39.5876304 L49.2896512,40.0589724 C49.2457045,41.475325 49.0864027,42.885865 48.8132944,44.2768789 L47.3842242,44.5185927 L47.3842242,44.7482209 L48.8132944,44.7482209 C48.5690089,45.449191 48.5690089,45.9567901 48.3369377,46.391875 L48.8132944,46.391875 C49.1457558,45.9741006 49.3869839,45.492608 49.5217224,44.977849 L54.7372179,45.449191 C53.9642539,46.6871926 52.9103937,47.7299585 51.6592206,48.4947853 C51.3814669,48.6863303 51.0431404,48.7721674 50.7065071,48.7364992 C49.2896512,48.9661273 42.1565144,50.1384394 40.275516,50.3801533 C40.1158587,49.6639802 39.8783329,48.9670087 39.567088,48.3014143 C37.4418041,43.3825377 34.595878,41.7388836 21.0868896,32.819643 C16.8118932,30.0157625 9.94747052,25.0848002 7.80997235,21.3382357 C7.14057991,20.1163568 6.81572829,18.738792 6.86947315,17.3499574 C6.82336206,15.9239398 7.25255847,14.522502 8.09090068,13.3616791 L8.09090068,12.1531099 C6.12907475,13.4674762 4.96758602,15.6706057 5.00068903,18.0146704 C4.98634783,19.3770215 5.23080174,20.7299122 5.72133127,22.0029488 C6.39311641,24.347573 8.05425785,26.2208552 11.5963977,29.5081634 C14.9064663,32.5537578 17.2760357,34.898382 18.7051059,38.1856902 L18.9249628,38.1856902 L18.9249628,34.6687538 C19.8776763,35.369724 20.8181755,36.0706941 21.5388177,36.5420361 C24.6168151,38.6449465 27.9268837,41.7026265 29.3559539,45.0020204 L29.9178106,45.0020204 L29.9178106,41.9322547 C35.5974486,45.6909048 39.3960882,48.9661273 40.3365874,56 L40.8129441,56 C40.979656,54.357982 40.9014627,52.7006322 40.5808729,51.0811234 L50.0591505,51.0811234 C53.1371479,51.0811234 55.983074,52.0117217 55.983074,55.0694017 L56.4594307,55.0694017 L57.6808583,51.5524654 C56.885966,50.4092254 55.709851,49.5792095 54.3585754,49.2078412 C57.257943,46.9411277 58.9643841,43.4975236 59,39.84143 C58.9554035,36.7924838 57.7769851,33.8666953 55.6899314,31.6231595 C56.3983594,30.4387617 57.5831441,28.3358513 57.8152153,28.0941375 Z" id="Path"></path>
            <path d="M11.4547863,41.7574411 C14.3978663,43.957872 16.7618359,46.8584264 18.3383474,50.2034651 L18.8168838,50.2034651 L18.8168838,46.8325189 C23.3445737,49.482008 27.1483241,51.8951577 29.0501993,56 L29.5287356,56 C28.571663,51.1737006 26.1912514,47.7903154 17.1481417,42.2425589 C8.81670133,36.9311417 5.95775347,34.517992 5.72462038,31.1470458 C5.6484211,30.232415 5.81357963,29.3136966 6.20315672,28.4851177 L5.47921713,28 C4.81007454,29.0817901 4.4806162,30.3440099 4.53441462,31.6197246 C4.5719757,33.3289959 5.06369727,34.9963399 5.95775347,36.446024 C7.17249956,38.3864949 8.36270532,39.3442914 11.4547863,41.7574411 Z" id="Path"></path>
            <path d="M46.857974,30 L44.9537971,30 C44.4746816,31.4181818 43.9955661,32.5939394 43.5287356,34 L48.5287356,33.769697 C48.2578814,32.4077097 47.6875615,31.1209115 46.857974,30 L46.857974,30 Z" id="Path" fill="#838383"></path>
            <path d="M43.1928578,36 C42.7542361,37.6208491 42.5304536,39.3056487 42.5287356,41 L48.5287356,40.4974227 C48.500349,39.0671427 48.350817,37.6431696 48.0821707,36.2448454 L43.1928578,36 Z" id="Path" fill="#838383"></path>
            <path d="M36.5287356,35 L40.9699964,34.7250859 C40.9086663,33.4606449 41.0982745,32.1965365 41.5287356,31 C39.4594223,31.7865016 37.7071302,33.1883353 36.5287356,35 L36.5287356,35 Z" id="Path" fill="#838383"></path>
            <path d="M50.9362234,27.3210604 L49.9628105,26.1428571 L50.1999239,25.9189985 L52.8705696,27.2857143 L52.3838631,29.1237113 C52.9218847,29.3386408 53.4128014,29.6462917 53.8315029,30.0309278 L55.5287356,27.2857143 L50.9362234,25 L40.7653064,25 L32.5287356,29.8070692 C34.0072588,30.7436195 35.3864336,31.8129018 36.647021,33 C38.9347053,29.9174342 42.6446975,28.0522989 46.6307432,27.9808542 C47.8386613,27.7215468 49.1003734,27.7993215 50.2623222,28.2047128 L50.9362234,27.3210604 Z" id="Path" fill="#838383"></path>
            <path d="M26.5287356,17.7354205 C27.1607714,17.9136524 27.8480003,17.9823753 28.5287356,17.9354205 C29.3460791,17.9211553 30.0979,17.6279452 30.5287356,17.1554205 C28.5287356,16.9654205 27.7052062,16.9654205 26.5287356,17.7354205 Z" id="Path" fill="#838383"></path>
            <path d="M30.6331705,25.0012578 C28.9089706,25.1921 27.2010179,25.5757871 25.5287356,26.147956 C26.8491499,26.9574389 28.1127708,27.911654 29.3055597,29 L33.5287356,25.8539308 C32.6320305,25.2709699 31.6380215,24.9782586 30.6331705,25.0012578 Z" id="Path" fill="#838383"></path>
            <path d="M50.5287356,36 C50.7963894,37.3220068 50.7963894,38.6779932 50.5287356,40 L56.5287356,39.7548387 C56.3236826,38.5476598 55.9555026,37.3686716 55.4327169,36.2451613 L50.5287356,36 Z" id="Path" fill="#838383"></path>
            <path d="M49.6462141,34 L53.5287356,33.7628458 C52.0670154,32.6101661 50.3754128,31.6754387 48.5287356,31 C49.0245536,31.965633 49.399018,32.970926 49.6462141,34 Z" id="Path" fill="#838383"></path>
            <path d="M49.5287356,45 L54.8878517,44.0429448 C55.2896739,43.1764242 55.5088247,42.2198008 55.5287356,41.2453988 L50.6005588,41 C50.362893,42.3693045 50.0038718,43.7091567 49.5287356,45 Z" id="Path" fill="#838383"></path>
            <path d="M14.1116953,59 L11.5287356,59 L11.5287356,65 L13.6139374,65 C15.9681975,65 17.5287356,63.9506726 17.5287356,61.8654709 C17.5018298,59.5112108 16.1968971,59 14.1116953,59 Z" id="Path" fill="#838383"></path>
            <path d="M34.5287356,61.5 C34.5287356,59.7474227 33.2400758,59.257732 31.5261583,59.257732 C30.5338903,59.257732 29.5287356,59.257732 29.5287356,59 L29.5287356,64 L31.0493542,64 C32.8019315,64 34.5287356,63.4974227 34.5287356,61.5 Z" id="Path" fill="#838383"></path>
            <path d="M31.6936418,65 L29.5287356,65 L29.5287356,71 L31.6936418,71 C34.0935949,71 35.5286184,70.076 35.5286184,67.748 C35.5409893,65.9 34.5760597,65 31.6936418,65 Z" id="Path" fill="#838383"></path>
            <path d="M0.528735632,0 L0.528735632,70.1532096 C0.528735632,72.7870318 1.49033628,74.4608628 3.63544541,75.1747025 C12.3694211,78.3754437 21.6016176,80.008791 30.9054535,79.9996417 C40.2066046,80.0276704 49.4392547,78.4109105 58.1754616,75.2239328 C60.1935963,74.3742655 61.4437125,72.3338453 61.2821714,70.1532096 L61.5287356,0 L0.528735632,0 Z M3.88200968,32.2335537 C3.82795674,30.9713086 4.15897377,29.7224158 4.83128212,28.6520477 L5.55864671,29.1320433 C5.1672265,29.9518737 5.00128659,30.8608919 5.07784638,31.7658656 C5.31208244,35.10122 8.18455617,37.4888906 16.5554131,42.7442275 C25.6413064,48.2334085 28.0329798,51.5810704 28.9945804,56.3564117 L28.5137801,56.3564117 C26.602907,52.2949101 22.7811609,49.9072394 18.2320501,47.2857248 L18.2320501,50.6210791 L17.7265934,50.6210791 C16.135658,47.3086178 13.7518276,44.4384369 10.7858092,42.2642319 C7.70375584,39.8765612 6.50791914,38.9288775 5.31208244,37.0088949 C4.41379641,35.5745173 3.91974847,33.9247778 3.88200968,32.2335537 Z M17.7265934,72.8362622 L12.795308,65.9070943 L11.5624866,65.9070943 L11.5624866,72.6147257 L7.95032011,72.6147257 L7.95032011,60.8979089 C8.03832685,59.9607376 7.77958699,59.0238281 7.22295552,58.2640867 C6.95415277,58.0352084 6.62419988,57.8897587 6.27368309,57.845629 L6.27368309,57.5994773 L14.64454,57.5994773 C18.7128504,57.5994773 20.3894875,59.0394643 20.3894875,61.6609789 C20.3894875,63.8148056 18.7128504,65.0086409 16.5554131,65.7224806 L22.0537963,72.8854925 L17.7265934,72.8362622 Z M32.0766338,72.8362622 L25.4070703,72.8362622 L25.4070703,60.6517573 C25.4638269,59.7959505 25.2099979,58.9483574 24.6920339,58.2640867 C24.4250701,58.016411 24.0903423,57.8536114 23.7304333,57.7963986 L23.7304333,57.550247 L31.8670541,57.550247 C36.650401,57.550247 37.3654373,59.224078 37.3654373,60.8979089 C37.2673044,62.6105654 35.9626121,64.0112791 34.2587275,64.2332633 C36.4161649,64.4794149 38.561274,65.4640214 38.561274,68.2947649 C38.561274,71.3839676 35.6888003,72.8362622 32.1012902,72.8362622 L32.0766338,72.8362622 Z M55.0440954,71.6055041 C55.0440954,71.6055041 53.6140226,72.8362622 50.0265125,72.8362622 C45.9582021,72.8362622 41.6433274,71.3962752 41.6433274,65.1932546 C41.6433274,59.7040736 45.2308375,57.316403 50.2730768,57.316403 C51.8471038,57.219774 53.4182292,57.5470753 54.8221875,58.2640867 L54.0948229,60.8979089 L53.8605869,60.8979089 C53.6246693,60.3438431 53.1827602,59.9026736 52.6277655,59.6671509 C51.8368634,59.1880105 50.9269026,58.9406425 50.0018561,58.9533112 C47.1293824,58.9533112 45.2061811,60.6148346 45.2061811,65.1071015 C45.4527453,70.1162868 48.8060194,71.0762781 50.9511285,71.0762781 C52.4135164,71.1868353 53.8645091,70.7478764 55.0194389,69.8455201 L55.0440954,71.6055041 Z M53.3921148,50.1533911 C54.7559954,50.5315775 55.9430816,51.3768323 56.7453888,52.5410617 L55.5125675,56.1225677 L55.0317672,56.1225677 C55.0317672,53.0087498 52.1592934,52.0610661 49.0525837,52.0610661 L39.5228747,52.0610661 C39.846455,53.7103084 39.9253777,55.3980865 39.7571107,57.0702514 L39.2763104,57.0702514 C38.327038,49.9072394 34.4929636,46.5718851 28.7603444,42.7442275 L28.7603444,45.8457378 L28.279544,45.8457378 C26.8371431,42.5103835 23.4961972,39.3965656 20.3894875,37.2304314 C19.6621229,36.7504358 18.7128504,35.9996733 17.7512498,35.3227564 L17.7512498,38.9042624 L17.5170137,38.9042624 C16.0746128,35.5812156 13.6829394,33.2304677 10.3296653,30.0920346 C6.7421552,26.7443727 5.06551817,24.8366977 4.35048179,22.4490271 C3.85537646,21.1526181 3.60864222,19.7748888 3.6231172,18.3875255 C3.59245554,15.9980901 4.7696691,13.7540231 6.75448341,12.4183489 L6.75448341,13.6491069 C5.90832092,14.8312421 5.47512084,16.2584098 5.52166207,17.7106085 C5.46741586,19.1249416 5.79529778,20.527798 6.4709345,21.7721101 C8.62837185,25.5874601 15.5568278,30.608953 19.8717025,33.4643117 C33.5436912,42.5103835 36.4161649,44.1842145 38.561274,49.2303225 C38.8779618,49.9199356 39.1177476,50.6422166 39.2763104,51.3841491 C41.1995117,51.1379975 48.3745319,49.9441622 49.8046047,49.7103182 C50.1443782,49.7466412 50.4858606,49.6592282 50.7662053,49.4641665 C52.0290497,48.6852978 53.0927407,47.6233871 53.8729151,46.3626562 L48.608768,45.8826606 C48.4727726,46.4068703 48.2292942,46.897203 47.8937316,47.3226475 L47.4129313,47.3226475 C47.6471673,46.8426519 47.6471673,46.3626562 47.8937316,45.6488165 L46.4513306,45.6488165 L46.4513306,45.4149725 L47.8937316,45.1688209 C48.1693875,43.7522685 48.3301753,42.3158316 48.3745319,40.8734753 L41.6679838,40.3934796 L41.6679838,42.3011546 L41.1501988,42.3011546 C40.9610252,41.6836541 40.877665,41.0386941 40.9036346,40.3934796 L39.5228747,40.3934796 L39.5228747,39.8765612 L40.9529474,39.8765612 C40.7636677,38.2921607 40.6853988,36.6965024 40.7187114,35.10122 L36.884637,34.8673759 C37.1395188,35.1258134 37.3075502,35.4570126 37.3654373,35.8150596 C37.9512113,37.8108821 38.1149427,39.9064897 37.8462377,41.9688499 L37.3654373,41.9688499 C37.3270758,40.489638 37.0048283,39.0315061 36.4161649,37.6735043 C35.4545642,35.039682 32.8286548,32.898163 29.0192368,30.2889559 L29.0192368,33.3904662 L28.5384365,33.3904662 C27.1083638,29.0951206 23.7550897,26.70745 18.9717429,24.3197793 C14.6691964,23.0890213 13.2267955,20.5044293 13.4733597,16.6767718 L14.9034325,17.3906114 C15.0818185,20.6448149 17.8034048,23.1770882 21.0675392,23.125944 C22.7495489,23.0882315 24.4265463,22.9278053 26.0851221,22.6459484 C28.2425594,22.1659527 30.3876685,21.6982646 32.3108698,22.4121043 L32.3108698,20.2952005 L30.9054535,20.2952005 C30.1093725,20.9758149 29.0790688,21.3201462 28.0329798,21.2551917 C26.368671,21.2551917 23.249633,20.2952005 23.249633,16.9598461 C23.249633,14.0921798 25.6413064,13.6121842 27.7987437,13.6121842 L31.3862538,13.6121842 C31.8670541,13.6121842 32.1012902,13.6121842 32.3478545,13.3783401 C32.5286061,13.1821705 32.614208,12.9167988 32.5820905,12.6521929 L32.5820905,9.07068692 L23.0153969,9.07068692 L23.0153969,12.8983445 L19.6621229,11.2245135 L19.6621229,10.2645222 L21.3387599,10.2645222 L21.3387599,8.83684289 L14.8787761,8.83684289 L14.8787761,5.73533257 L12.795308,5.73533257 C11.3966983,5.67147787 10.2006396,6.72922694 10.0954292,8.12300321 C10.0954292,9.55068257 10.5762296,10.9906695 12.2528666,10.9906695 L12.4871026,10.9906695 L12.4871026,12.8983445 L12.2528666,12.8983445 C9.61390861,12.8915806 7.47629507,10.7575446 7.46951979,8.12300321 C7.49161765,6.74633916 8.06950292,5.43688765 9.07216237,4.49151635 C10.0748218,3.54614505 11.4173239,3.04493286 12.795308,3.10151032 L17.3320905,3.10151032 L17.3320905,6.15379031 L35.2203282,6.15379031 L35.2203282,13.0829582 C35.1595561,13.9509195 34.7056889,14.7438577 33.9875069,15.2367848 C33.1255847,15.4810348 32.242087,15.6417766 31.3492692,15.7167805 L28.0329798,15.7167805 C25.8878706,15.4706288 25.4070703,16.4306201 25.4070703,17.1444598 L25.4070703,17.6244555 C26.4893811,16.7812654 27.9143598,16.5151027 29.2288165,16.9106158 C31.8670541,17.8582995 32.8286548,17.8582995 34.0244915,16.6644642 L34.2587275,16.9106158 C33.9624183,17.1784548 33.7197716,17.5000501 33.5436912,17.8582995 L34.7765125,17.8582995 L34.7765125,25.0213114 L38.8448229,22.6336408 L50.3223896,22.6336408 C52.1861513,23.688552 54.1037363,24.6457399 56.0673371,25.5013071 C56.6623843,25.7874489 57.1096981,26.3099301 57.3001584,26.941294 C57.33978,27.5064378 57.2556423,28.0734165 57.0535942,28.6028174 C56.8193581,28.848969 55.6235214,30.990488 54.908485,32.1843233 C57.0022396,34.495811 58.1658511,37.4986031 58.1754616,40.6150161 C58.1156789,44.3549273 56.3555573,47.8647502 53.3921148,50.1533911 Z" id="Shape" fill="#838383"></path>
            <path d="M84.8113498,32.8393021 C84.3044106,31.8230793 83.9705726,31.4802571 83.4512691,30.4762779 C82.0788239,27.9418427 81.5842491,27.2439547 81.0649456,27.0970309 C80.9042088,27.0970309 80.7311076,26.9378635 80.5580064,26.9378635 L80.5580064,32.8393021 L77.8378449,32.8393021 L77.8378449,18.8448118 L83.1174311,18.8448118 C84.2205508,18.7717387 85.3018076,19.1738991 86.0835744,19.948033 C86.8653411,20.7221669 87.2714668,21.7928666 87.1976733,22.8852158 C87.1976733,24.9054178 85.8375926,26.7664524 83.9705726,26.7664524 C84.3044106,26.9378635 84.3044106,27.0970309 84.4775118,27.268442 C85.3306534,28.2846648 87.8777137,32.667891 87.8777137,32.667891 L84.8113498,32.667891 L84.8113498,32.8393021 Z M83.4512691,21.3670034 C82.9555612,21.2155423 82.4347391,21.1614731 81.9180871,21.2078359 L80.9042088,21.2078359 L80.9042088,25.0768289 L81.7573503,25.0768289 C82.5305272,25.1513212 83.3072232,24.9751557 83.9705726,24.5748393 C84.3068551,24.2063736 84.4882074,23.7245691 84.4775118,23.228038 C84.4775118,22.2118151 84.1313094,21.5384144 83.4512691,21.3670034 L83.4512691,21.3670034 Z M97.4106433,31.6516682 C96.5464981,32.6130586 95.3101765,33.1650843 94.0104414,33.1698806 C91.1171787,33.1698806 89.2377944,31.1496786 89.2377944,27.7826752 C89.2377944,24.4156719 91.1171787,22.3464953 94.0104414,22.3464953 C95.3756286,22.2721376 96.6974812,22.8337617 97.5837445,23.8647077 C98.4622396,24.8834545 98.9057027,26.2008542 98.8201815,27.5378023 C98.8249925,29.0260862 98.3290436,30.4735584 97.4106433,31.6516682 L97.4106433,31.6516682 Z M95.197421,24.9054178 C94.8834018,24.5611803 94.4286584,24.3765559 93.9609839,24.4034282 C93.3151662,24.359001 92.734987,24.7924984 92.6009032,25.4196511 C92.3617455,26.1846241 92.2449321,26.9819411 92.2547008,27.7826752 C92.2341914,28.636272 92.3510549,29.4876589 92.6009032,30.3048669 C92.8572264,30.8178067 93.3830611,31.144428 93.9609839,31.1496786 C95.197421,31.1496786 95.667267,30.1334558 95.667267,27.6112642 C95.7676198,26.6836049 95.6049185,25.746607 95.197421,24.9054178 L95.197421,24.9054178 Z M106.943573,22.5546373 L109.836836,22.5546373 L106.127524,32.9984695 C105.43512,35.0309152 104.891087,35.8634833 104.075039,36.3777166 C103.321144,36.9125805 102.446838,37.2572072 101.527979,37.3816957 L100.501736,35.7043159 C101.10507,35.5776948 101.682129,35.3499529 102.208019,35.0309152 C102.541857,34.8595041 102.714958,34.516682 103.061161,34.1861035 C103.301008,33.8104079 103.472578,33.3960303 103.5681,32.9617386 L102.888059,32.9617386 C102.541857,31.9577594 102.034918,30.439547 101.861817,30.0967248 L99.3147563,22.8484848 L102.034918,22.5179063 L103.914302,28.5785124 C104.075039,29.2519131 104.421241,30.6109581 104.421241,30.7701255 M118.714454,33.4759718 C118.103535,33.2139778 117.577336,32.7903507 117.193636,32.251607 C117.020535,32.4230181 116.674332,32.5944291 116.501231,32.7658402 C115.884303,33.1244781 115.175807,33.2988099 114.46111,33.2678298 C112.074787,33.2678298 110.887807,32.043465 110.887807,30.0599939 C110.887807,27.7092133 112.59409,26.5215794 115.994292,26.5215794 L116.699061,26.5215794 L116.699061,26.0195898 C116.699061,24.795225 116.52596,24.5013774 115.462624,24.5013774 C114.356419,24.6611201 113.304956,25.0809576 112.39626,25.7257423 L111.159823,23.7055403 C111.708971,23.3944571 112.274406,23.1124565 112.853742,22.8607285 C113.747102,22.4028322 114.741191,22.1714601 115.747005,22.1873278 C117.176376,22.0357094 118.547591,22.7906026 119.171935,24.0728497 L119.171935,29.4600551 C119.171935,30.68442 119.171935,31.1496786 120.185814,31.8230793 L118.714454,33.4759718 Z M116.315766,28.4683196 C114.436381,28.4683196 113.756341,28.7988981 113.756341,29.986532 C113.721285,30.3318885 113.835905,30.6757499 114.071689,30.9325808 C114.307474,31.1894117 114.642263,31.3350736 114.992778,31.3333488 C115.513803,31.2802935 115.997393,31.0408593 116.352859,30.6599327 L116.352859,28.4683196 L116.315766,28.4683196 Z M124.822453,33.1821243 C123.818865,33.2806982 122.861923,32.7406157 122.436129,31.8353229 C122.255757,31.0611585 122.201494,30.263423 122.275392,29.4722987 L122.275392,21.7098255 C122.31989,20.6945016 122.261902,19.6773149 122.102291,18.6734007 L124.822453,18 C125.008472,18.8852473 125.066753,19.7921468 124.995554,20.6936027 L124.995554,28.7866544 C124.995554,30.647689 124.995554,30.8068564 125.168655,31.1496786 C125.341756,31.4925008 125.502493,31.4802571 125.675594,31.4802571 L126.021796,31.4802571 L126.528736,33.1698806 L124.822453,33.1821243 Z M83.8222002,57.3265993 L77.5287356,57.3265993 L77.5287356,43.332109 L82.2890182,43.332109 C83.5647115,43.2537071 84.8293399,43.6078003 85.8746857,44.3360882 C86.5969668,44.9378328 87.0270324,45.8151332 87.0576932,46.749332 C87.088354,47.6835307 86.716722,48.586632 86.0354225,49.2335476 C85.6596474,49.5867702 85.1861711,49.821197 84.6753417,49.9069483 C86.3688725,50.251657 87.580408,51.7333458 87.5686899,53.4453627 C87.4078676,55.4655647 86.2085237,57.3265993 83.8592933,57.3265993 L83.8222002,57.3265993 Z M83.1421598,45.8543006 C82.981423,45.6951331 82.6352206,45.6951331 81.9057228,45.6951331 L80.2488971,45.6951331 L80.2488971,48.8907254 L81.9551802,48.8907254 C82.6352206,48.8907254 82.981423,48.8907254 83.1916173,48.7193144 C83.7179079,48.4746727 84.0514115,47.9481915 84.0447588,47.372513 C84.0390966,46.743192 83.6951023,46.1645781 83.1421598,45.8543006 L83.1421598,45.8543006 Z M83.1421598,51.4251607 C82.8285889,51.2704991 82.4759108,51.2108737 82.1282814,51.2537496 L80.4219983,51.2537496 L80.4219983,55.1349862 L82.2890182,55.1349862 C82.7744178,55.2076329 83.2689391,55.0841067 83.6614634,54.7921641 C84.1526791,54.3723628 84.4064531,53.7418377 84.3415037,53.1025406 C84.1684026,52.2699725 83.8222002,51.5843281 83.1050667,51.4251607 L83.1421598,51.4251607 Z M97.101534,58 C96.4883885,57.7361512 95.9586516,57.3131151 95.5683521,56.7756351 C95.4076153,56.9470462 95.0614129,57.1184573 94.8883117,57.2898684 C94.2713838,57.6485063 93.5628873,57.822838 92.8481906,57.791858 C90.4618671,57.791858 89.2748875,56.5674931 89.2748875,54.584022 C89.2748875,52.2332415 90.9811707,51.0456076 94.3813725,51.0456076 L95.0614129,51.0456076 L95.0614129,50.543618 C95.0614129,49.3192531 94.8883117,49.0254056 93.8249759,49.0254056 C92.7187706,49.1851483 91.6673074,49.6049858 90.758612,50.2497704 L89.5221749,48.2295684 C90.0713224,47.9184852 90.6367573,47.6364846 91.2160937,47.3847567 C92.1094542,46.9268604 93.1035432,46.6954883 94.1093564,46.711356 C95.5285904,46.5609397 96.8916182,47.3042636 97.5219226,48.5723906 L97.5219226,53.959596 C97.5219226,55.1839608 97.5219226,55.6492195 98.535801,56.3226201 L97.101534,58 Z M94.7275749,52.9556168 C92.8481906,52.9556168 92.1681502,53.2861953 92.1681502,54.4738292 C92.1330939,54.8191858 92.2477139,55.1630471 92.4834987,55.419878 C92.7192834,55.6767089 93.0540725,55.8223708 93.4045873,55.820646 C93.9300027,55.7704864 94.4184661,55.5308182 94.7770324,55.1472299 L94.7770324,52.9556168 L94.7275749,52.9556168 Z M106.127524,57.338843 L106.127524,50.5803489 C106.127524,49.3559841 105.954423,49.0621365 105.274383,49.0621365 C104.544555,49.1545805 103.877321,49.5177574 103.407363,50.0783594 L103.407363,57.3265993 L100.687201,57.3265993 L100.687201,49.9069483 C100.66955,49.1082403 100.553285,48.3146706 100.340999,47.5439241 L102.727323,46.8337925 C102.91935,47.2592401 103.032434,47.7154547 103.061161,48.1805938 C103.445545,47.8610938 103.859527,47.5782354 104.297598,47.3357821 C104.848405,47.002839 105.482224,46.8289686 106.127524,46.8337925 C107.208182,46.7964832 108.210269,47.3909062 108.686949,48.3520049 C108.839904,48.8428728 108.894506,49.3586098 108.847686,49.8702173 L108.847686,57.4857668 L106.127524,57.3265993 L106.127524,57.338843 Z M111.753313,57.338843 L111.753313,45.7073768 C111.776695,44.8021307 111.718767,43.8966182 111.580212,43.0015305 L114.300373,42.3281298 C114.458656,43.4472809 114.516583,44.5781099 114.473474,45.7073768 L114.473474,57.338843 L111.753313,57.338843 Z M118.046778,57.338843 L114.473474,51.4251607 L117.193636,46.8337925 L120.408372,46.8337925 L116.995806,51.2170187 L121.088413,57.338843 L118.046778,57.338843 Z" id="Shape" fill="#838383"></path>
        </g>
    </g>
</svg>